<?xml version="1.0" encoding="utf-8" standalone="no"?>
<!DOCTYPE svg PUBLIC "-//W3C//DTD SVG 1.1//EN"
  "http://www.w3.org/Graphics/SVG/1.1/DTD/svg11.dtd">
<!-- Created with matplotlib (https://matplotlib.org/) -->
<svg height="288pt" version="1.1" viewBox="0 0 432 288" width="432pt" xmlns="http://www.w3.org/2000/svg" xmlns:xlink="http://www.w3.org/1999/xlink">
 <defs>
  <style type="text/css">
*{stroke-linecap:butt;stroke-linejoin:round;}
  </style>
 </defs>
 <g id="figure_1">
  <g id="patch_1">
   <path d="M 0 288 
L 432 288 
L 432 0 
L 0 0 
z
" style="fill:#ffffff;"/>
  </g>
  <g id="axes_1">
   <g id="patch_2">
    <path d="M 44.425 242.08 
L 403.2625 242.08 
L 403.2625 43.8 
L 44.425 43.8 
z
" style="fill:#ffffff;"/>
   </g>
   <g id="matplotlib.axis_1">
    <g id="xtick_1">
     <g id="line2d_1">
      <defs>
       <path d="M 0 0 
L 0 3.5 
" id="m7b1e2cf2d0" style="stroke:#000000;stroke-width:0.8;"/>
      </defs>
      <g>
       <use style="stroke:#000000;stroke-width:0.8;" x="44.425" xlink:href="#m7b1e2cf2d0" y="242.08"/>
      </g>
     </g>
     <g id="text_1">
      <!-- 0 -->
      <defs>
       <path d="M 31.78125 66.40625 
Q 24.171875 66.40625 20.328125 58.90625 
Q 16.5 51.421875 16.5 36.375 
Q 16.5 21.390625 20.328125 13.890625 
Q 24.171875 6.390625 31.78125 6.390625 
Q 39.453125 6.390625 43.28125 13.890625 
Q 47.125 21.390625 47.125 36.375 
Q 47.125 51.421875 43.28125 58.90625 
Q 39.453125 66.40625 31.78125 66.40625 
z
M 31.78125 74.21875 
Q 44.046875 74.21875 50.515625 64.515625 
Q 56.984375 54.828125 56.984375 36.375 
Q 56.984375 17.96875 50.515625 8.265625 
Q 44.046875 -1.421875 31.78125 -1.421875 
Q 19.53125 -1.421875 13.0625 8.265625 
Q 6.59375 17.96875 6.59375 36.375 
Q 6.59375 54.828125 13.0625 64.515625 
Q 19.53125 74.21875 31.78125 74.21875 
z
" id="DejaVuSans-48"/>
      </defs>
      <g transform="translate(41.24375 256.678438)scale(0.1 -0.1)">
       <use xlink:href="#DejaVuSans-48"/>
      </g>
     </g>
    </g>
    <g id="xtick_2">
     <g id="line2d_2">
      <g>
       <use style="stroke:#000000;stroke-width:0.8;" x="84.295833" xlink:href="#m7b1e2cf2d0" y="242.08"/>
      </g>
     </g>
     <g id="text_2">
      <!-- 10 -->
      <defs>
       <path d="M 12.40625 8.296875 
L 28.515625 8.296875 
L 28.515625 63.921875 
L 10.984375 60.40625 
L 10.984375 69.390625 
L 28.421875 72.90625 
L 38.28125 72.90625 
L 38.28125 8.296875 
L 54.390625 8.296875 
L 54.390625 0 
L 12.40625 0 
z
" id="DejaVuSans-49"/>
      </defs>
      <g transform="translate(77.933333 256.678438)scale(0.1 -0.1)">
       <use xlink:href="#DejaVuSans-49"/>
       <use x="63.623047" xlink:href="#DejaVuSans-48"/>
      </g>
     </g>
    </g>
    <g id="xtick_3">
     <g id="line2d_3">
      <g>
       <use style="stroke:#000000;stroke-width:0.8;" x="124.166667" xlink:href="#m7b1e2cf2d0" y="242.08"/>
      </g>
     </g>
     <g id="text_3">
      <!-- 20 -->
      <defs>
       <path d="M 19.1875 8.296875 
L 53.609375 8.296875 
L 53.609375 0 
L 7.328125 0 
L 7.328125 8.296875 
Q 12.9375 14.109375 22.625 23.890625 
Q 32.328125 33.6875 34.8125 36.53125 
Q 39.546875 41.84375 41.421875 45.53125 
Q 43.3125 49.21875 43.3125 52.78125 
Q 43.3125 58.59375 39.234375 62.25 
Q 35.15625 65.921875 28.609375 65.921875 
Q 23.96875 65.921875 18.8125 64.3125 
Q 13.671875 62.703125 7.8125 59.421875 
L 7.8125 69.390625 
Q 13.765625 71.78125 18.9375 73 
Q 24.125 74.21875 28.421875 74.21875 
Q 39.75 74.21875 46.484375 68.546875 
Q 53.21875 62.890625 53.21875 53.421875 
Q 53.21875 48.921875 51.53125 44.890625 
Q 49.859375 40.875 45.40625 35.40625 
Q 44.1875 33.984375 37.640625 27.21875 
Q 31.109375 20.453125 19.1875 8.296875 
z
" id="DejaVuSans-50"/>
      </defs>
      <g transform="translate(117.804167 256.678438)scale(0.1 -0.1)">
       <use xlink:href="#DejaVuSans-50"/>
       <use x="63.623047" xlink:href="#DejaVuSans-48"/>
      </g>
     </g>
    </g>
    <g id="xtick_4">
     <g id="line2d_4">
      <g>
       <use style="stroke:#000000;stroke-width:0.8;" x="164.0375" xlink:href="#m7b1e2cf2d0" y="242.08"/>
      </g>
     </g>
     <g id="text_4">
      <!-- 30 -->
      <defs>
       <path d="M 40.578125 39.3125 
Q 47.65625 37.796875 51.625 33 
Q 55.609375 28.21875 55.609375 21.1875 
Q 55.609375 10.40625 48.1875 4.484375 
Q 40.765625 -1.421875 27.09375 -1.421875 
Q 22.515625 -1.421875 17.65625 -0.515625 
Q 12.796875 0.390625 7.625 2.203125 
L 7.625 11.71875 
Q 11.71875 9.328125 16.59375 8.109375 
Q 21.484375 6.890625 26.8125 6.890625 
Q 36.078125 6.890625 40.9375 10.546875 
Q 45.796875 14.203125 45.796875 21.1875 
Q 45.796875 27.640625 41.28125 31.265625 
Q 36.765625 34.90625 28.71875 34.90625 
L 20.21875 34.90625 
L 20.21875 43.015625 
L 29.109375 43.015625 
Q 36.375 43.015625 40.234375 45.921875 
Q 44.09375 48.828125 44.09375 54.296875 
Q 44.09375 59.90625 40.109375 62.90625 
Q 36.140625 65.921875 28.71875 65.921875 
Q 24.65625 65.921875 20.015625 65.03125 
Q 15.375 64.15625 9.8125 62.3125 
L 9.8125 71.09375 
Q 15.4375 72.65625 20.34375 73.4375 
Q 25.25 74.21875 29.59375 74.21875 
Q 40.828125 74.21875 47.359375 69.109375 
Q 53.90625 64.015625 53.90625 55.328125 
Q 53.90625 49.265625 50.4375 45.09375 
Q 46.96875 40.921875 40.578125 39.3125 
z
" id="DejaVuSans-51"/>
      </defs>
      <g transform="translate(157.675 256.678438)scale(0.1 -0.1)">
       <use xlink:href="#DejaVuSans-51"/>
       <use x="63.623047" xlink:href="#DejaVuSans-48"/>
      </g>
     </g>
    </g>
    <g id="xtick_5">
     <g id="line2d_5">
      <g>
       <use style="stroke:#000000;stroke-width:0.8;" x="203.908333" xlink:href="#m7b1e2cf2d0" y="242.08"/>
      </g>
     </g>
     <g id="text_5">
      <!-- 40 -->
      <defs>
       <path d="M 37.796875 64.3125 
L 12.890625 25.390625 
L 37.796875 25.390625 
z
M 35.203125 72.90625 
L 47.609375 72.90625 
L 47.609375 25.390625 
L 58.015625 25.390625 
L 58.015625 17.1875 
L 47.609375 17.1875 
L 47.609375 0 
L 37.796875 0 
L 37.796875 17.1875 
L 4.890625 17.1875 
L 4.890625 26.703125 
z
" id="DejaVuSans-52"/>
      </defs>
      <g transform="translate(197.545833 256.678438)scale(0.1 -0.1)">
       <use xlink:href="#DejaVuSans-52"/>
       <use x="63.623047" xlink:href="#DejaVuSans-48"/>
      </g>
     </g>
    </g>
    <g id="xtick_6">
     <g id="line2d_6">
      <g>
       <use style="stroke:#000000;stroke-width:0.8;" x="243.779167" xlink:href="#m7b1e2cf2d0" y="242.08"/>
      </g>
     </g>
     <g id="text_6">
      <!-- 50 -->
      <defs>
       <path d="M 10.796875 72.90625 
L 49.515625 72.90625 
L 49.515625 64.59375 
L 19.828125 64.59375 
L 19.828125 46.734375 
Q 21.96875 47.46875 24.109375 47.828125 
Q 26.265625 48.1875 28.421875 48.1875 
Q 40.625 48.1875 47.75 41.5 
Q 54.890625 34.8125 54.890625 23.390625 
Q 54.890625 11.625 47.5625 5.09375 
Q 40.234375 -1.421875 26.90625 -1.421875 
Q 22.3125 -1.421875 17.546875 -0.640625 
Q 12.796875 0.140625 7.71875 1.703125 
L 7.71875 11.625 
Q 12.109375 9.234375 16.796875 8.0625 
Q 21.484375 6.890625 26.703125 6.890625 
Q 35.15625 6.890625 40.078125 11.328125 
Q 45.015625 15.765625 45.015625 23.390625 
Q 45.015625 31 40.078125 35.4375 
Q 35.15625 39.890625 26.703125 39.890625 
Q 22.75 39.890625 18.8125 39.015625 
Q 14.890625 38.140625 10.796875 36.28125 
z
" id="DejaVuSans-53"/>
      </defs>
      <g transform="translate(237.416667 256.678438)scale(0.1 -0.1)">
       <use xlink:href="#DejaVuSans-53"/>
       <use x="63.623047" xlink:href="#DejaVuSans-48"/>
      </g>
     </g>
    </g>
    <g id="xtick_7">
     <g id="line2d_7">
      <g>
       <use style="stroke:#000000;stroke-width:0.8;" x="283.65" xlink:href="#m7b1e2cf2d0" y="242.08"/>
      </g>
     </g>
     <g id="text_7">
      <!-- 60 -->
      <defs>
       <path d="M 33.015625 40.375 
Q 26.375 40.375 22.484375 35.828125 
Q 18.609375 31.296875 18.609375 23.390625 
Q 18.609375 15.53125 22.484375 10.953125 
Q 26.375 6.390625 33.015625 6.390625 
Q 39.65625 6.390625 43.53125 10.953125 
Q 47.40625 15.53125 47.40625 23.390625 
Q 47.40625 31.296875 43.53125 35.828125 
Q 39.65625 40.375 33.015625 40.375 
z
M 52.59375 71.296875 
L 52.59375 62.3125 
Q 48.875 64.0625 45.09375 64.984375 
Q 41.3125 65.921875 37.59375 65.921875 
Q 27.828125 65.921875 22.671875 59.328125 
Q 17.53125 52.734375 16.796875 39.40625 
Q 19.671875 43.65625 24.015625 45.921875 
Q 28.375 48.1875 33.59375 48.1875 
Q 44.578125 48.1875 50.953125 41.515625 
Q 57.328125 34.859375 57.328125 23.390625 
Q 57.328125 12.15625 50.6875 5.359375 
Q 44.046875 -1.421875 33.015625 -1.421875 
Q 20.359375 -1.421875 13.671875 8.265625 
Q 6.984375 17.96875 6.984375 36.375 
Q 6.984375 53.65625 15.1875 63.9375 
Q 23.390625 74.21875 37.203125 74.21875 
Q 40.921875 74.21875 44.703125 73.484375 
Q 48.484375 72.75 52.59375 71.296875 
z
" id="DejaVuSans-54"/>
      </defs>
      <g transform="translate(277.2875 256.678438)scale(0.1 -0.1)">
       <use xlink:href="#DejaVuSans-54"/>
       <use x="63.623047" xlink:href="#DejaVuSans-48"/>
      </g>
     </g>
    </g>
    <g id="xtick_8">
     <g id="line2d_8">
      <g>
       <use style="stroke:#000000;stroke-width:0.8;" x="323.520833" xlink:href="#m7b1e2cf2d0" y="242.08"/>
      </g>
     </g>
     <g id="text_8">
      <!-- 70 -->
      <defs>
       <path d="M 8.203125 72.90625 
L 55.078125 72.90625 
L 55.078125 68.703125 
L 28.609375 0 
L 18.3125 0 
L 43.21875 64.59375 
L 8.203125 64.59375 
z
" id="DejaVuSans-55"/>
      </defs>
      <g transform="translate(317.158333 256.678438)scale(0.1 -0.1)">
       <use xlink:href="#DejaVuSans-55"/>
       <use x="63.623047" xlink:href="#DejaVuSans-48"/>
      </g>
     </g>
    </g>
    <g id="xtick_9">
     <g id="line2d_9">
      <g>
       <use style="stroke:#000000;stroke-width:0.8;" x="363.391667" xlink:href="#m7b1e2cf2d0" y="242.08"/>
      </g>
     </g>
     <g id="text_9">
      <!-- 80 -->
      <defs>
       <path d="M 31.78125 34.625 
Q 24.75 34.625 20.71875 30.859375 
Q 16.703125 27.09375 16.703125 20.515625 
Q 16.703125 13.921875 20.71875 10.15625 
Q 24.75 6.390625 31.78125 6.390625 
Q 38.8125 6.390625 42.859375 10.171875 
Q 46.921875 13.96875 46.921875 20.515625 
Q 46.921875 27.09375 42.890625 30.859375 
Q 38.875 34.625 31.78125 34.625 
z
M 21.921875 38.8125 
Q 15.578125 40.375 12.03125 44.71875 
Q 8.5 49.078125 8.5 55.328125 
Q 8.5 64.0625 14.71875 69.140625 
Q 20.953125 74.21875 31.78125 74.21875 
Q 42.671875 74.21875 48.875 69.140625 
Q 55.078125 64.0625 55.078125 55.328125 
Q 55.078125 49.078125 51.53125 44.71875 
Q 48 40.375 41.703125 38.8125 
Q 48.828125 37.15625 52.796875 32.3125 
Q 56.78125 27.484375 56.78125 20.515625 
Q 56.78125 9.90625 50.3125 4.234375 
Q 43.84375 -1.421875 31.78125 -1.421875 
Q 19.734375 -1.421875 13.25 4.234375 
Q 6.78125 9.90625 6.78125 20.515625 
Q 6.78125 27.484375 10.78125 32.3125 
Q 14.796875 37.15625 21.921875 38.8125 
z
M 18.3125 54.390625 
Q 18.3125 48.734375 21.84375 45.5625 
Q 25.390625 42.390625 31.78125 42.390625 
Q 38.140625 42.390625 41.71875 45.5625 
Q 45.3125 48.734375 45.3125 54.390625 
Q 45.3125 60.0625 41.71875 63.234375 
Q 38.140625 66.40625 31.78125 66.40625 
Q 25.390625 66.40625 21.84375 63.234375 
Q 18.3125 60.0625 18.3125 54.390625 
z
" id="DejaVuSans-56"/>
      </defs>
      <g transform="translate(357.029167 256.678438)scale(0.1 -0.1)">
       <use xlink:href="#DejaVuSans-56"/>
       <use x="63.623047" xlink:href="#DejaVuSans-48"/>
      </g>
     </g>
    </g>
    <g id="xtick_10">
     <g id="line2d_10">
      <g>
       <use style="stroke:#000000;stroke-width:0.8;" x="403.2625" xlink:href="#m7b1e2cf2d0" y="242.08"/>
      </g>
     </g>
     <g id="text_10">
      <!-- 90 -->
      <defs>
       <path d="M 10.984375 1.515625 
L 10.984375 10.5 
Q 14.703125 8.734375 18.5 7.8125 
Q 22.3125 6.890625 25.984375 6.890625 
Q 35.75 6.890625 40.890625 13.453125 
Q 46.046875 20.015625 46.78125 33.40625 
Q 43.953125 29.203125 39.59375 26.953125 
Q 35.25 24.703125 29.984375 24.703125 
Q 19.046875 24.703125 12.671875 31.3125 
Q 6.296875 37.9375 6.296875 49.421875 
Q 6.296875 60.640625 12.9375 67.421875 
Q 19.578125 74.21875 30.609375 74.21875 
Q 43.265625 74.21875 49.921875 64.515625 
Q 56.59375 54.828125 56.59375 36.375 
Q 56.59375 19.140625 48.40625 8.859375 
Q 40.234375 -1.421875 26.421875 -1.421875 
Q 22.703125 -1.421875 18.890625 -0.6875 
Q 15.09375 0.046875 10.984375 1.515625 
z
M 30.609375 32.421875 
Q 37.25 32.421875 41.125 36.953125 
Q 45.015625 41.5 45.015625 49.421875 
Q 45.015625 57.28125 41.125 61.84375 
Q 37.25 66.40625 30.609375 66.40625 
Q 23.96875 66.40625 20.09375 61.84375 
Q 16.21875 57.28125 16.21875 49.421875 
Q 16.21875 41.5 20.09375 36.953125 
Q 23.96875 32.421875 30.609375 32.421875 
z
" id="DejaVuSans-57"/>
      </defs>
      <g transform="translate(396.9 256.678438)scale(0.1 -0.1)">
       <use xlink:href="#DejaVuSans-57"/>
       <use x="63.623047" xlink:href="#DejaVuSans-48"/>
      </g>
     </g>
    </g>
    <g id="text_11">
     <!-- Days since Jan 1st -->
     <defs>
      <path d="M 19.671875 64.796875 
L 19.671875 8.109375 
L 31.59375 8.109375 
Q 46.6875 8.109375 53.6875 14.9375 
Q 60.6875 21.78125 60.6875 36.53125 
Q 60.6875 51.171875 53.6875 57.984375 
Q 46.6875 64.796875 31.59375 64.796875 
z
M 9.8125 72.90625 
L 30.078125 72.90625 
Q 51.265625 72.90625 61.171875 64.09375 
Q 71.09375 55.28125 71.09375 36.53125 
Q 71.09375 17.671875 61.125 8.828125 
Q 51.171875 0 30.078125 0 
L 9.8125 0 
z
" id="DejaVuSans-68"/>
      <path d="M 34.28125 27.484375 
Q 23.390625 27.484375 19.1875 25 
Q 14.984375 22.515625 14.984375 16.5 
Q 14.984375 11.71875 18.140625 8.90625 
Q 21.296875 6.109375 26.703125 6.109375 
Q 34.1875 6.109375 38.703125 11.40625 
Q 43.21875 16.703125 43.21875 25.484375 
L 43.21875 27.484375 
z
M 52.203125 31.203125 
L 52.203125 0 
L 43.21875 0 
L 43.21875 8.296875 
Q 40.140625 3.328125 35.546875 0.953125 
Q 30.953125 -1.421875 24.3125 -1.421875 
Q 15.921875 -1.421875 10.953125 3.296875 
Q 6 8.015625 6 15.921875 
Q 6 25.140625 12.171875 29.828125 
Q 18.359375 34.515625 30.609375 34.515625 
L 43.21875 34.515625 
L 43.21875 35.40625 
Q 43.21875 41.609375 39.140625 45 
Q 35.0625 48.390625 27.6875 48.390625 
Q 23 48.390625 18.546875 47.265625 
Q 14.109375 46.140625 10.015625 43.890625 
L 10.015625 52.203125 
Q 14.9375 54.109375 19.578125 55.046875 
Q 24.21875 56 28.609375 56 
Q 40.484375 56 46.34375 49.84375 
Q 52.203125 43.703125 52.203125 31.203125 
z
" id="DejaVuSans-97"/>
      <path d="M 32.171875 -5.078125 
Q 28.375 -14.84375 24.75 -17.8125 
Q 21.140625 -20.796875 15.09375 -20.796875 
L 7.90625 -20.796875 
L 7.90625 -13.28125 
L 13.1875 -13.28125 
Q 16.890625 -13.28125 18.9375 -11.515625 
Q 21 -9.765625 23.484375 -3.21875 
L 25.09375 0.875 
L 2.984375 54.6875 
L 12.5 54.6875 
L 29.59375 11.921875 
L 46.6875 54.6875 
L 56.203125 54.6875 
z
" id="DejaVuSans-121"/>
      <path d="M 44.28125 53.078125 
L 44.28125 44.578125 
Q 40.484375 46.53125 36.375 47.5 
Q 32.28125 48.484375 27.875 48.484375 
Q 21.1875 48.484375 17.84375 46.4375 
Q 14.5 44.390625 14.5 40.28125 
Q 14.5 37.15625 16.890625 35.375 
Q 19.28125 33.59375 26.515625 31.984375 
L 29.59375 31.296875 
Q 39.15625 29.25 43.1875 25.515625 
Q 47.21875 21.78125 47.21875 15.09375 
Q 47.21875 7.46875 41.1875 3.015625 
Q 35.15625 -1.421875 24.609375 -1.421875 
Q 20.21875 -1.421875 15.453125 -0.5625 
Q 10.6875 0.296875 5.421875 2 
L 5.421875 11.28125 
Q 10.40625 8.6875 15.234375 7.390625 
Q 20.0625 6.109375 24.8125 6.109375 
Q 31.15625 6.109375 34.5625 8.28125 
Q 37.984375 10.453125 37.984375 14.40625 
Q 37.984375 18.0625 35.515625 20.015625 
Q 33.0625 21.96875 24.703125 23.78125 
L 21.578125 24.515625 
Q 13.234375 26.265625 9.515625 29.90625 
Q 5.8125 33.546875 5.8125 39.890625 
Q 5.8125 47.609375 11.28125 51.796875 
Q 16.75 56 26.8125 56 
Q 31.78125 56 36.171875 55.265625 
Q 40.578125 54.546875 44.28125 53.078125 
z
" id="DejaVuSans-115"/>
      <path id="DejaVuSans-32"/>
      <path d="M 9.421875 54.6875 
L 18.40625 54.6875 
L 18.40625 0 
L 9.421875 0 
z
M 9.421875 75.984375 
L 18.40625 75.984375 
L 18.40625 64.59375 
L 9.421875 64.59375 
z
" id="DejaVuSans-105"/>
      <path d="M 54.890625 33.015625 
L 54.890625 0 
L 45.90625 0 
L 45.90625 32.71875 
Q 45.90625 40.484375 42.875 44.328125 
Q 39.84375 48.1875 33.796875 48.1875 
Q 26.515625 48.1875 22.3125 43.546875 
Q 18.109375 38.921875 18.109375 30.90625 
L 18.109375 0 
L 9.078125 0 
L 9.078125 54.6875 
L 18.109375 54.6875 
L 18.109375 46.1875 
Q 21.34375 51.125 25.703125 53.5625 
Q 30.078125 56 35.796875 56 
Q 45.21875 56 50.046875 50.171875 
Q 54.890625 44.34375 54.890625 33.015625 
z
" id="DejaVuSans-110"/>
      <path d="M 48.78125 52.59375 
L 48.78125 44.1875 
Q 44.96875 46.296875 41.140625 47.34375 
Q 37.3125 48.390625 33.40625 48.390625 
Q 24.65625 48.390625 19.8125 42.84375 
Q 14.984375 37.3125 14.984375 27.296875 
Q 14.984375 17.28125 19.8125 11.734375 
Q 24.65625 6.203125 33.40625 6.203125 
Q 37.3125 6.203125 41.140625 7.25 
Q 44.96875 8.296875 48.78125 10.40625 
L 48.78125 2.09375 
Q 45.015625 0.34375 40.984375 -0.53125 
Q 36.96875 -1.421875 32.421875 -1.421875 
Q 20.0625 -1.421875 12.78125 6.34375 
Q 5.515625 14.109375 5.515625 27.296875 
Q 5.515625 40.671875 12.859375 48.328125 
Q 20.21875 56 33.015625 56 
Q 37.15625 56 41.109375 55.140625 
Q 45.0625 54.296875 48.78125 52.59375 
z
" id="DejaVuSans-99"/>
      <path d="M 56.203125 29.59375 
L 56.203125 25.203125 
L 14.890625 25.203125 
Q 15.484375 15.921875 20.484375 11.0625 
Q 25.484375 6.203125 34.421875 6.203125 
Q 39.59375 6.203125 44.453125 7.46875 
Q 49.3125 8.734375 54.109375 11.28125 
L 54.109375 2.78125 
Q 49.265625 0.734375 44.1875 -0.34375 
Q 39.109375 -1.421875 33.890625 -1.421875 
Q 20.796875 -1.421875 13.15625 6.1875 
Q 5.515625 13.8125 5.515625 26.8125 
Q 5.515625 40.234375 12.765625 48.109375 
Q 20.015625 56 32.328125 56 
Q 43.359375 56 49.78125 48.890625 
Q 56.203125 41.796875 56.203125 29.59375 
z
M 47.21875 32.234375 
Q 47.125 39.59375 43.09375 43.984375 
Q 39.0625 48.390625 32.421875 48.390625 
Q 24.90625 48.390625 20.390625 44.140625 
Q 15.875 39.890625 15.1875 32.171875 
z
" id="DejaVuSans-101"/>
      <path d="M 9.8125 72.90625 
L 19.671875 72.90625 
L 19.671875 5.078125 
Q 19.671875 -8.109375 14.671875 -14.0625 
Q 9.671875 -20.015625 -1.421875 -20.015625 
L -5.171875 -20.015625 
L -5.171875 -11.71875 
L -2.09375 -11.71875 
Q 4.4375 -11.71875 7.125 -8.046875 
Q 9.8125 -4.390625 9.8125 5.078125 
z
" id="DejaVuSans-74"/>
      <path d="M 18.3125 70.21875 
L 18.3125 54.6875 
L 36.8125 54.6875 
L 36.8125 47.703125 
L 18.3125 47.703125 
L 18.3125 18.015625 
Q 18.3125 11.328125 20.140625 9.421875 
Q 21.96875 7.515625 27.59375 7.515625 
L 36.8125 7.515625 
L 36.8125 0 
L 27.59375 0 
Q 17.1875 0 13.234375 3.875 
Q 9.28125 7.765625 9.28125 18.015625 
L 9.28125 47.703125 
L 2.6875 47.703125 
L 2.6875 54.6875 
L 9.28125 54.6875 
L 9.28125 70.21875 
z
" id="DejaVuSans-116"/>
     </defs>
     <g transform="translate(178.15625 270.356562)scale(0.1 -0.1)">
      <use xlink:href="#DejaVuSans-68"/>
      <use x="77.001953" xlink:href="#DejaVuSans-97"/>
      <use x="138.28125" xlink:href="#DejaVuSans-121"/>
      <use x="197.460938" xlink:href="#DejaVuSans-115"/>
      <use x="249.560547" xlink:href="#DejaVuSans-32"/>
      <use x="281.347656" xlink:href="#DejaVuSans-115"/>
      <use x="333.447266" xlink:href="#DejaVuSans-105"/>
      <use x="361.230469" xlink:href="#DejaVuSans-110"/>
      <use x="424.609375" xlink:href="#DejaVuSans-99"/>
      <use x="479.589844" xlink:href="#DejaVuSans-101"/>
      <use x="541.113281" xlink:href="#DejaVuSans-32"/>
      <use x="572.900391" xlink:href="#DejaVuSans-74"/>
      <use x="602.392578" xlink:href="#DejaVuSans-97"/>
      <use x="663.671875" xlink:href="#DejaVuSans-110"/>
      <use x="727.050781" xlink:href="#DejaVuSans-32"/>
      <use x="758.837891" xlink:href="#DejaVuSans-49"/>
      <use x="822.460938" xlink:href="#DejaVuSans-115"/>
      <use x="874.560547" xlink:href="#DejaVuSans-116"/>
     </g>
    </g>
   </g>
   <g id="matplotlib.axis_2">
    <g id="ytick_1">
     <g id="line2d_11">
      <path clip-path="url(#p36e24e430a)" d="M 44.425 242.08 
L 403.2625 242.08 
" style="fill:none;stroke:#b0b0b0;stroke-linecap:square;stroke-width:0.8;"/>
     </g>
     <g id="line2d_12">
      <defs>
       <path d="M 0 0 
L -3.5 0 
" id="m70ae6e9a73" style="stroke:#000000;stroke-width:0.8;"/>
      </defs>
      <g>
       <use style="stroke:#000000;stroke-width:0.8;" x="44.425" xlink:href="#m70ae6e9a73" y="242.08"/>
      </g>
     </g>
     <g id="text_12">
      <!-- 0 -->
      <g transform="translate(31.0625 245.879219)scale(0.1 -0.1)">
       <use xlink:href="#DejaVuSans-48"/>
      </g>
     </g>
    </g>
    <g id="ytick_2">
     <g id="line2d_13">
      <path clip-path="url(#p36e24e430a)" d="M 44.425 220.048889 
L 403.2625 220.048889 
" style="fill:none;stroke:#b0b0b0;stroke-linecap:square;stroke-width:0.8;"/>
     </g>
     <g id="line2d_14">
      <g>
       <use style="stroke:#000000;stroke-width:0.8;" x="44.425" xlink:href="#m70ae6e9a73" y="220.048889"/>
      </g>
     </g>
     <g id="text_13">
      <!-- 10 -->
      <g transform="translate(24.7 223.848108)scale(0.1 -0.1)">
       <use xlink:href="#DejaVuSans-49"/>
       <use x="63.623047" xlink:href="#DejaVuSans-48"/>
      </g>
     </g>
    </g>
    <g id="ytick_3">
     <g id="line2d_15">
      <path clip-path="url(#p36e24e430a)" d="M 44.425 198.017778 
L 403.2625 198.017778 
" style="fill:none;stroke:#b0b0b0;stroke-linecap:square;stroke-width:0.8;"/>
     </g>
     <g id="line2d_16">
      <g>
       <use style="stroke:#000000;stroke-width:0.8;" x="44.425" xlink:href="#m70ae6e9a73" y="198.017778"/>
      </g>
     </g>
     <g id="text_14">
      <!-- 20 -->
      <g transform="translate(24.7 201.816997)scale(0.1 -0.1)">
       <use xlink:href="#DejaVuSans-50"/>
       <use x="63.623047" xlink:href="#DejaVuSans-48"/>
      </g>
     </g>
    </g>
    <g id="ytick_4">
     <g id="line2d_17">
      <path clip-path="url(#p36e24e430a)" d="M 44.425 175.986667 
L 403.2625 175.986667 
" style="fill:none;stroke:#b0b0b0;stroke-linecap:square;stroke-width:0.8;"/>
     </g>
     <g id="line2d_18">
      <g>
       <use style="stroke:#000000;stroke-width:0.8;" x="44.425" xlink:href="#m70ae6e9a73" y="175.986667"/>
      </g>
     </g>
     <g id="text_15">
      <!-- 30 -->
      <g transform="translate(24.7 179.785885)scale(0.1 -0.1)">
       <use xlink:href="#DejaVuSans-51"/>
       <use x="63.623047" xlink:href="#DejaVuSans-48"/>
      </g>
     </g>
    </g>
    <g id="ytick_5">
     <g id="line2d_19">
      <path clip-path="url(#p36e24e430a)" d="M 44.425 153.955556 
L 403.2625 153.955556 
" style="fill:none;stroke:#b0b0b0;stroke-linecap:square;stroke-width:0.8;"/>
     </g>
     <g id="line2d_20">
      <g>
       <use style="stroke:#000000;stroke-width:0.8;" x="44.425" xlink:href="#m70ae6e9a73" y="153.955556"/>
      </g>
     </g>
     <g id="text_16">
      <!-- 40 -->
      <g transform="translate(24.7 157.754774)scale(0.1 -0.1)">
       <use xlink:href="#DejaVuSans-52"/>
       <use x="63.623047" xlink:href="#DejaVuSans-48"/>
      </g>
     </g>
    </g>
    <g id="ytick_6">
     <g id="line2d_21">
      <path clip-path="url(#p36e24e430a)" d="M 44.425 131.924444 
L 403.2625 131.924444 
" style="fill:none;stroke:#b0b0b0;stroke-linecap:square;stroke-width:0.8;"/>
     </g>
     <g id="line2d_22">
      <g>
       <use style="stroke:#000000;stroke-width:0.8;" x="44.425" xlink:href="#m70ae6e9a73" y="131.924444"/>
      </g>
     </g>
     <g id="text_17">
      <!-- 50 -->
      <g transform="translate(24.7 135.723663)scale(0.1 -0.1)">
       <use xlink:href="#DejaVuSans-53"/>
       <use x="63.623047" xlink:href="#DejaVuSans-48"/>
      </g>
     </g>
    </g>
    <g id="ytick_7">
     <g id="line2d_23">
      <path clip-path="url(#p36e24e430a)" d="M 44.425 109.893333 
L 403.2625 109.893333 
" style="fill:none;stroke:#b0b0b0;stroke-linecap:square;stroke-width:0.8;"/>
     </g>
     <g id="line2d_24">
      <g>
       <use style="stroke:#000000;stroke-width:0.8;" x="44.425" xlink:href="#m70ae6e9a73" y="109.893333"/>
      </g>
     </g>
     <g id="text_18">
      <!-- 60 -->
      <g transform="translate(24.7 113.692552)scale(0.1 -0.1)">
       <use xlink:href="#DejaVuSans-54"/>
       <use x="63.623047" xlink:href="#DejaVuSans-48"/>
      </g>
     </g>
    </g>
    <g id="ytick_8">
     <g id="line2d_25">
      <path clip-path="url(#p36e24e430a)" d="M 44.425 87.862222 
L 403.2625 87.862222 
" style="fill:none;stroke:#b0b0b0;stroke-linecap:square;stroke-width:0.8;"/>
     </g>
     <g id="line2d_26">
      <g>
       <use style="stroke:#000000;stroke-width:0.8;" x="44.425" xlink:href="#m70ae6e9a73" y="87.862222"/>
      </g>
     </g>
     <g id="text_19">
      <!-- 70 -->
      <g transform="translate(24.7 91.661441)scale(0.1 -0.1)">
       <use xlink:href="#DejaVuSans-55"/>
       <use x="63.623047" xlink:href="#DejaVuSans-48"/>
      </g>
     </g>
    </g>
    <g id="ytick_9">
     <g id="line2d_27">
      <path clip-path="url(#p36e24e430a)" d="M 44.425 65.831111 
L 403.2625 65.831111 
" style="fill:none;stroke:#b0b0b0;stroke-linecap:square;stroke-width:0.8;"/>
     </g>
     <g id="line2d_28">
      <g>
       <use style="stroke:#000000;stroke-width:0.8;" x="44.425" xlink:href="#m70ae6e9a73" y="65.831111"/>
      </g>
     </g>
     <g id="text_20">
      <!-- 80 -->
      <g transform="translate(24.7 69.63033)scale(0.1 -0.1)">
       <use xlink:href="#DejaVuSans-56"/>
       <use x="63.623047" xlink:href="#DejaVuSans-48"/>
      </g>
     </g>
    </g>
    <g id="ytick_10">
     <g id="line2d_29">
      <path clip-path="url(#p36e24e430a)" d="M 44.425 43.8 
L 403.2625 43.8 
" style="fill:none;stroke:#b0b0b0;stroke-linecap:square;stroke-width:0.8;"/>
     </g>
     <g id="line2d_30">
      <g>
       <use style="stroke:#000000;stroke-width:0.8;" x="44.425" xlink:href="#m70ae6e9a73" y="43.8"/>
      </g>
     </g>
     <g id="text_21">
      <!-- 90 -->
      <g transform="translate(24.7 47.599219)scale(0.1 -0.1)">
       <use xlink:href="#DejaVuSans-57"/>
       <use x="63.623047" xlink:href="#DejaVuSans-48"/>
      </g>
     </g>
    </g>
    <g id="text_22">
     <!-- Deaths per 1 million people -->
     <defs>
      <path d="M 54.890625 33.015625 
L 54.890625 0 
L 45.90625 0 
L 45.90625 32.71875 
Q 45.90625 40.484375 42.875 44.328125 
Q 39.84375 48.1875 33.796875 48.1875 
Q 26.515625 48.1875 22.3125 43.546875 
Q 18.109375 38.921875 18.109375 30.90625 
L 18.109375 0 
L 9.078125 0 
L 9.078125 75.984375 
L 18.109375 75.984375 
L 18.109375 46.1875 
Q 21.34375 51.125 25.703125 53.5625 
Q 30.078125 56 35.796875 56 
Q 45.21875 56 50.046875 50.171875 
Q 54.890625 44.34375 54.890625 33.015625 
z
" id="DejaVuSans-104"/>
      <path d="M 18.109375 8.203125 
L 18.109375 -20.796875 
L 9.078125 -20.796875 
L 9.078125 54.6875 
L 18.109375 54.6875 
L 18.109375 46.390625 
Q 20.953125 51.265625 25.265625 53.625 
Q 29.59375 56 35.59375 56 
Q 45.5625 56 51.78125 48.09375 
Q 58.015625 40.1875 58.015625 27.296875 
Q 58.015625 14.40625 51.78125 6.484375 
Q 45.5625 -1.421875 35.59375 -1.421875 
Q 29.59375 -1.421875 25.265625 0.953125 
Q 20.953125 3.328125 18.109375 8.203125 
z
M 48.6875 27.296875 
Q 48.6875 37.203125 44.609375 42.84375 
Q 40.53125 48.484375 33.40625 48.484375 
Q 26.265625 48.484375 22.1875 42.84375 
Q 18.109375 37.203125 18.109375 27.296875 
Q 18.109375 17.390625 22.1875 11.75 
Q 26.265625 6.109375 33.40625 6.109375 
Q 40.53125 6.109375 44.609375 11.75 
Q 48.6875 17.390625 48.6875 27.296875 
z
" id="DejaVuSans-112"/>
      <path d="M 41.109375 46.296875 
Q 39.59375 47.171875 37.8125 47.578125 
Q 36.03125 48 33.890625 48 
Q 26.265625 48 22.1875 43.046875 
Q 18.109375 38.09375 18.109375 28.8125 
L 18.109375 0 
L 9.078125 0 
L 9.078125 54.6875 
L 18.109375 54.6875 
L 18.109375 46.1875 
Q 20.953125 51.171875 25.484375 53.578125 
Q 30.03125 56 36.53125 56 
Q 37.453125 56 38.578125 55.875 
Q 39.703125 55.765625 41.0625 55.515625 
z
" id="DejaVuSans-114"/>
      <path d="M 52 44.1875 
Q 55.375 50.25 60.0625 53.125 
Q 64.75 56 71.09375 56 
Q 79.640625 56 84.28125 50.015625 
Q 88.921875 44.046875 88.921875 33.015625 
L 88.921875 0 
L 79.890625 0 
L 79.890625 32.71875 
Q 79.890625 40.578125 77.09375 44.375 
Q 74.3125 48.1875 68.609375 48.1875 
Q 61.625 48.1875 57.5625 43.546875 
Q 53.515625 38.921875 53.515625 30.90625 
L 53.515625 0 
L 44.484375 0 
L 44.484375 32.71875 
Q 44.484375 40.625 41.703125 44.40625 
Q 38.921875 48.1875 33.109375 48.1875 
Q 26.21875 48.1875 22.15625 43.53125 
Q 18.109375 38.875 18.109375 30.90625 
L 18.109375 0 
L 9.078125 0 
L 9.078125 54.6875 
L 18.109375 54.6875 
L 18.109375 46.1875 
Q 21.1875 51.21875 25.484375 53.609375 
Q 29.78125 56 35.6875 56 
Q 41.65625 56 45.828125 52.96875 
Q 50 49.953125 52 44.1875 
z
" id="DejaVuSans-109"/>
      <path d="M 9.421875 75.984375 
L 18.40625 75.984375 
L 18.40625 0 
L 9.421875 0 
z
" id="DejaVuSans-108"/>
      <path d="M 30.609375 48.390625 
Q 23.390625 48.390625 19.1875 42.75 
Q 14.984375 37.109375 14.984375 27.296875 
Q 14.984375 17.484375 19.15625 11.84375 
Q 23.34375 6.203125 30.609375 6.203125 
Q 37.796875 6.203125 41.984375 11.859375 
Q 46.1875 17.53125 46.1875 27.296875 
Q 46.1875 37.015625 41.984375 42.703125 
Q 37.796875 48.390625 30.609375 48.390625 
z
M 30.609375 56 
Q 42.328125 56 49.015625 48.375 
Q 55.71875 40.765625 55.71875 27.296875 
Q 55.71875 13.875 49.015625 6.21875 
Q 42.328125 -1.421875 30.609375 -1.421875 
Q 18.84375 -1.421875 12.171875 6.21875 
Q 5.515625 13.875 5.515625 27.296875 
Q 5.515625 40.765625 12.171875 48.375 
Q 18.84375 56 30.609375 56 
z
" id="DejaVuSans-111"/>
     </defs>
     <g transform="translate(18.620313 212.112656)rotate(-90)scale(0.1 -0.1)">
      <use xlink:href="#DejaVuSans-68"/>
      <use x="77.001953" xlink:href="#DejaVuSans-101"/>
      <use x="138.525391" xlink:href="#DejaVuSans-97"/>
      <use x="199.804688" xlink:href="#DejaVuSans-116"/>
      <use x="239.013672" xlink:href="#DejaVuSans-104"/>
      <use x="302.392578" xlink:href="#DejaVuSans-115"/>
      <use x="354.492188" xlink:href="#DejaVuSans-32"/>
      <use x="386.279297" xlink:href="#DejaVuSans-112"/>
      <use x="449.755859" xlink:href="#DejaVuSans-101"/>
      <use x="511.279297" xlink:href="#DejaVuSans-114"/>
      <use x="552.392578" xlink:href="#DejaVuSans-32"/>
      <use x="584.179688" xlink:href="#DejaVuSans-49"/>
      <use x="647.802734" xlink:href="#DejaVuSans-32"/>
      <use x="679.589844" xlink:href="#DejaVuSans-109"/>
      <use x="777.001953" xlink:href="#DejaVuSans-105"/>
      <use x="804.785156" xlink:href="#DejaVuSans-108"/>
      <use x="832.568359" xlink:href="#DejaVuSans-108"/>
      <use x="860.351562" xlink:href="#DejaVuSans-105"/>
      <use x="888.134766" xlink:href="#DejaVuSans-111"/>
      <use x="949.316406" xlink:href="#DejaVuSans-110"/>
      <use x="1012.695312" xlink:href="#DejaVuSans-32"/>
      <use x="1044.482422" xlink:href="#DejaVuSans-112"/>
      <use x="1107.958984" xlink:href="#DejaVuSans-101"/>
      <use x="1169.482422" xlink:href="#DejaVuSans-111"/>
      <use x="1230.664062" xlink:href="#DejaVuSans-112"/>
      <use x="1294.140625" xlink:href="#DejaVuSans-108"/>
      <use x="1321.923828" xlink:href="#DejaVuSans-101"/>
     </g>
    </g>
   </g>
   <g id="line2d_31">
    <path clip-path="url(#p36e24e430a)" d="M 44.425 168.794631 
L 48.412083 163.157295 
L 52.399167 165.095129 
L 56.38625 160.16246 
L 60.373333 158.400792 
L 64.360417 162.276461 
L 68.3475 158.576959 
L 72.334583 160.514793 
L 76.321667 158.929293 
L 80.30875 157.696125 
L 84.295833 167.561464 
L 88.282917 166.152129 
L 92.27 172.317966 
L 96.257083 165.447462 
L 100.244167 162.452628 
L 104.23125 167.032963 
L 108.218333 161.395627 
L 112.205417 168.089964 
L 116.1925 165.447462 
L 120.179583 159.63396 
L 124.166667 158.048459 
L 128.15375 167.561464 
L 132.140833 167.20913 
L 136.127917 166.68063 
L 140.115 164.214295 
L 144.102083 162.981128 
L 148.089167 164.742795 
L 152.07625 163.685795 
L 156.063333 166.856797 
L 160.050417 163.861962 
L 164.0375 163.861962 
L 168.024583 162.804961 
L 172.011667 160.338627 
L 175.99875 157.696125 
L 179.985833 167.20913 
L 183.972917 157.872292 
L 187.96 154.525124 
L 191.947083 159.810126 
L 195.934167 165.271296 
L 199.92125 163.861962 
L 203.908333 156.815292 
L 207.895417 161.571794 
L 211.8825 154.348957 
L 215.869583 161.21946 
L 219.856667 165.271296 
L 223.84375 165.623629 
L 227.830833 158.753126 
L 231.817917 166.328296 
L 235.805 167.032963 
L 239.792083 163.861962 
L 243.779167 168.794631 
L 247.76625 163.861962 
L 251.753333 170.732465 
L 255.740417 166.328296 
L 259.7275 164.390462 
L 263.714583 163.685795 
L 267.701667 167.561464 
L 271.68875 165.095129 
L 275.675833 174.079633 
L 279.662917 172.141799 
L 283.65 172.846466 
L 287.637083 170.027798 
L 291.624167 165.271296 
L 295.61125 170.556298 
L 299.598333 178.836136 
L 303.585417 177.426802 
L 307.5725 183.416471 
L 311.559583 167.913797 
L 315.546667 175.488967 
L 319.53375 174.960467 
L 323.520833 168.618464 
L 327.507917 177.426802 
L 331.495 173.7273 
L 335.482083 179.540803 
L 339.469167 177.955302 
L 343.45625 168.442297 
L 347.443333 179.364636 
L 351.430417 177.250635 
L 355.4175 175.841301 
L 359.404583 176.369801 
" style="fill:none;stroke:#1f77b4;stroke-linecap:square;"/>
   </g>
   <g id="line2d_32">
    <path clip-path="url(#p36e24e430a)" d="M 44.425 176.87899 
L 48.412083 173.354611 
L 52.399167 173.178392 
L 56.38625 174.235706 
L 60.373333 175.116801 
L 64.360417 169.125356 
L 68.3475 175.116801 
L 72.334583 175.997895 
L 76.321667 174.411925 
L 80.30875 175.997895 
L 84.295833 169.654013 
L 88.282917 174.059487 
L 92.27 173.707049 
L 96.257083 175.116801 
L 100.244167 172.121079 
L 104.23125 173.002173 
L 108.218333 180.050931 
L 112.205417 174.588144 
L 116.1925 167.363167 
L 120.179583 171.239984 
L 124.166667 170.887546 
L 128.15375 175.469239 
L 132.140833 168.420481 
L 136.127917 173.707049 
L 140.115 168.244262 
L 144.102083 172.825954 
L 148.089167 168.420481 
L 152.07625 174.059487 
L 156.063333 173.883268 
L 160.050417 174.764363 
L 164.0375 175.29302 
L 168.024583 169.830232 
L 172.011667 176.350333 
L 175.99875 179.698493 
L 179.985833 177.055209 
L 183.972917 174.764363 
L 187.96 174.411925 
L 191.947083 178.464961 
L 195.934167 178.112523 
L 199.92125 169.830232 
L 203.908333 175.469239 
L 207.895417 185.161281 
L 211.8825 169.301575 
L 215.869583 175.469239 
L 219.856667 176.526552 
L 223.84375 170.711327 
L 227.830833 181.813121 
L 231.817917 173.53083 
L 235.805 171.592422 
L 239.792083 177.055209 
L 243.779167 180.755807 
L 247.76625 182.341777 
L 251.753333 180.22715 
L 255.740417 171.768641 
L 259.7275 174.059487 
L 263.714583 172.473516 
L 267.701667 174.940582 
L 271.68875 181.813121 
L 275.675833 177.760085 
L 279.662917 177.231428 
L 283.65 183.399091 
L 287.637083 174.588144 
L 291.624167 178.112523 
L 295.61125 176.702771 
L 299.598333 183.927748 
L 303.585417 177.760085 
L 307.5725 180.050931 
L 311.559583 181.636902 
L 315.546667 177.407647 
L 319.53375 176.526552 
L 323.520833 178.112523 
L 327.507917 180.932026 
L 331.495 175.821676 
L 335.482083 180.403369 
L 339.469167 177.760085 
L 343.45625 183.046653 
L 347.443333 179.522274 
L 351.430417 191.681382 
L 355.4175 178.817398 
L 359.404583 178.993617 
L 363.391667 175.469239 
" style="fill:none;stroke:#ff7f0e;stroke-linecap:square;"/>
   </g>
   <g id="line2d_33">
    <path clip-path="url(#p36e24e430a)" d="M 44.425 159.900022 
L 48.412083 145.294159 
L 52.399167 150.397412 
L 56.38625 147.757799 
L 60.373333 143.006494 
L 64.360417 151.629232 
L 68.3475 155.852614 
L 72.334583 144.062339 
L 76.321667 153.388975 
L 80.30875 143.006494 
L 84.295833 145.998056 
L 88.282917 137.90324 
L 92.27 140.190906 
L 96.257083 148.285721 
L 100.244167 147.229876 
L 104.23125 151.453258 
L 108.218333 149.693515 
L 112.205417 153.740923 
L 116.1925 147.757799 
L 120.179583 159.900022 
L 124.166667 151.277284 
L 128.15375 151.805206 
L 132.140833 155.67664 
L 136.127917 155.67664 
L 140.115 153.740923 
L 144.102083 159.372099 
L 148.089167 160.427945 
L 152.07625 157.260408 
L 156.063333 161.835739 
L 160.050417 152.861052 
L 164.0375 167.114967 
L 168.024583 159.724048 
L 172.011667 159.724048 
L 175.99875 160.075997 
L 179.985833 163.94743 
L 183.972917 169.402632 
L 187.96 161.835739 
L 191.947083 165.883147 
L 195.934167 169.226658 
L 199.92125 167.290941 
L 203.908333 169.754581 
L 207.895417 172.394194 
L 211.8825 172.394194 
L 215.869583 173.45004 
L 219.856667 171.162375 
L 223.84375 170.9864 
L 227.830833 177.497448 
L 231.817917 169.050684 
L 235.805 172.21822 
L 239.792083 173.626014 
L 243.779167 177.849396 
L 247.76625 177.497448 
L 251.753333 174.68186 
L 255.740417 172.922117 
L 259.7275 175.737705 
L 263.714583 170.282503 
L 267.701667 175.561731 
L 271.68875 171.338349 
L 275.675833 167.114967 
L 279.662917 175.033808 
L 283.65 176.793551 
L 287.637083 176.441602 
L 291.624167 172.394194 
L 295.61125 181.896804 
L 299.598333 179.609139 
L 303.585417 176.969525 
L 307.5725 178.553293 
L 311.559583 178.729268 
L 315.546667 174.329911 
L 319.53375 185.064341 
L 323.520833 178.905242 
L 327.507917 174.857834 
L 331.495 179.961087 
L 335.482083 181.544856 
L 339.469167 182.95265 
L 343.45625 178.729268 
L 347.443333 176.969525 
L 351.430417 176.441602 
L 355.4175 177.497448 
L 359.404583 174.329911 
" style="fill:none;stroke:#2ca02c;stroke-linecap:square;"/>
   </g>
   <g id="line2d_34">
    <path clip-path="url(#p36e24e430a)" d="M 44.425 155.970879 
L 48.412083 157.892178 
L 52.399167 167.847999 
L 56.38625 161.734776 
L 60.373333 159.114823 
L 64.360417 155.446889 
L 68.3475 158.416169 
L 72.334583 155.970879 
L 76.321667 156.145543 
L 80.30875 157.368188 
L 84.295833 151.0803 
L 88.282917 162.084103 
L 92.27 170.467952 
L 96.257083 161.385449 
L 100.244167 156.320206 
L 104.23125 159.638813 
L 108.218333 153.874917 
L 112.205417 160.162804 
L 116.1925 163.306748 
L 120.179583 172.738578 
L 124.166667 165.40271 
L 128.15375 165.053383 
L 132.140833 163.481411 
L 136.127917 168.022663 
L 140.115 171.690597 
L 144.102083 164.354729 
L 148.089167 165.577373 
L 152.07625 173.087905 
L 156.063333 168.022663 
L 160.050417 161.385449 
L 164.0375 168.022663 
L 168.024583 158.241505 
L 172.011667 168.022663 
L 175.99875 173.786559 
L 179.985833 172.563915 
L 183.972917 172.738578 
L 187.96 172.913242 
L 191.947083 167.673336 
L 195.934167 171.690597 
L 199.92125 173.087905 
L 203.908333 173.087905 
L 207.895417 175.707858 
L 211.8825 175.707858 
L 215.869583 174.135886 
L 219.856667 175.358531 
L 223.84375 174.31055 
L 227.830833 166.450691 
L 231.817917 164.005402 
L 235.805 175.707858 
L 239.792083 168.546653 
L 243.779167 168.197326 
L 247.76625 168.022663 
L 251.753333 168.197326 
L 255.740417 170.817279 
L 259.7275 174.659877 
L 263.714583 173.437232 
L 267.701667 174.135886 
L 271.68875 171.690597 
L 275.675833 171.865261 
L 279.662917 169.943962 
L 283.65 175.358531 
L 287.637083 175.533195 
L 291.624167 178.153148 
L 295.61125 170.642616 
L 299.598333 168.197326 
L 303.585417 167.673336 
L 307.5725 176.930503 
L 311.559583 173.786559 
L 315.546667 169.943962 
L 319.53375 175.183868 
L 323.520833 176.581176 
L 327.507917 177.978484 
L 331.495 174.659877 
L 335.482083 180.074447 
L 339.469167 172.563915 
L 343.45625 181.297091 
L 347.443333 176.930503 
L 351.430417 182.869063 
L 355.4175 182.345072 
L 359.404583 179.201129 
" style="fill:none;stroke:#d62728;stroke-linecap:square;"/>
   </g>
   <g id="line2d_35">
    <path clip-path="url(#p36e24e430a)" d="M 44.425 173.416502 
L 48.412083 166.289404 
L 52.399167 169.418374 
L 56.38625 176.023976 
L 60.373333 178.979114 
L 64.360417 174.459491 
L 68.3475 168.375384 
L 72.334583 164.898751 
L 76.321667 164.551088 
L 80.30875 169.592205 
L 84.295833 166.810899 
L 88.282917 172.373512 
L 92.27 165.420246 
L 96.257083 161.248287 
L 100.244167 168.549216 
L 104.23125 168.375384 
L 108.218333 166.810899 
L 112.205417 168.375384 
L 116.1925 174.111828 
L 120.179583 171.504353 
L 124.166667 167.853889 
L 128.15375 166.637067 
L 132.140833 168.201552 
L 136.127917 166.637067 
L 140.115 167.680057 
L 144.102083 172.19968 
L 148.089167 163.68193 
L 152.07625 158.640812 
L 156.063333 161.769782 
L 160.050417 165.420246 
L 164.0375 164.029593 
L 168.024583 163.160435 
L 172.011667 157.771654 
L 175.99875 158.46698 
L 179.985833 160.205297 
L 183.972917 165.420246 
L 187.96 170.635195 
L 191.947083 168.201552 
L 195.934167 162.812771 
L 199.92125 159.857633 
L 203.908333 166.810899 
L 207.895417 159.50997 
L 211.8825 167.158562 
L 215.869583 157.945485 
L 219.856667 162.63894 
L 223.84375 167.158562 
L 227.830833 158.46698 
L 231.817917 169.418374 
L 235.805 168.549216 
L 239.792083 163.334266 
L 243.779167 167.506226 
L 247.76625 169.766037 
L 251.753333 170.287532 
L 255.740417 170.809027 
L 259.7275 175.676313 
L 263.714583 167.332394 
L 267.701667 170.461364 
L 271.68875 165.072583 
L 275.675833 169.592205 
L 279.662917 168.896879 
L 283.65 167.853889 
L 287.637083 169.07071 
L 291.624167 174.633323 
L 295.61125 177.762293 
L 299.598333 178.109956 
L 303.585417 170.1137 
L 307.5725 175.676313 
L 311.559583 177.066966 
L 315.546667 178.805282 
L 319.53375 178.457619 
L 323.520833 177.066966 
L 327.507917 172.373512 
L 331.495 180.891262 
L 335.482083 174.459491 
L 339.469167 177.240798 
L 343.45625 178.631451 
L 347.443333 174.980986 
L 351.430417 175.850145 
L 355.4175 176.197808 
L 359.404583 179.500609 
" style="fill:none;stroke:#9467bd;stroke-linecap:square;"/>
   </g>
   <g id="line2d_36">
    <path clip-path="url(#p36e24e430a)" d="M 44.425 176.371639 
L 48.412083 169.939869 
L 52.399167 167.853889 
L 56.38625 174.980986 
L 60.373333 173.24267 
L 64.360417 166.463236 
L 68.3475 171.330522 
L 72.334583 175.850145 
L 76.321667 169.418374 
L 80.30875 171.330522 
L 84.295833 175.32865 
L 88.282917 174.459491 
L 92.27 173.068838 
L 96.257083 168.723047 
L 100.244167 173.068838 
L 104.23125 170.1137 
L 108.218333 168.896879 
L 112.205417 173.764165 
L 116.1925 175.502481 
L 120.179583 176.719303 
L 124.166667 176.719303 
L 128.15375 173.416502 
L 132.140833 172.025848 
L 136.127917 167.680057 
L 140.115 172.547343 
L 144.102083 177.936124 
L 148.089167 169.418374 
L 152.07625 170.982859 
L 156.063333 169.592205 
L 160.050417 176.197808 
L 164.0375 166.289404 
L 168.024583 171.852017 
L 172.011667 177.762293 
L 175.99875 168.201552 
L 179.985833 176.893134 
L 183.972917 177.066966 
L 187.96 169.244542 
L 191.947083 174.807155 
L 195.934167 166.984731 
L 199.92125 175.32865 
L 203.908333 170.287532 
L 207.895417 173.590333 
L 211.8825 168.896879 
L 215.869583 174.459491 
L 219.856667 168.375384 
L 223.84375 178.631451 
L 227.830833 184.020232 
L 231.817917 170.461364 
L 235.805 174.633323 
L 239.792083 167.680057 
L 243.779167 175.676313 
L 247.76625 175.154818 
L 251.753333 172.895007 
L 255.740417 175.502481 
L 259.7275 168.723047 
L 263.714583 169.766037 
L 267.701667 170.635195 
L 271.68875 171.678185 
L 275.675833 167.680057 
L 279.662917 171.852017 
L 283.65 160.900623 
L 287.637083 154.816516 
L 291.624167 144.734281 
L 295.61125 151.513715 
L 299.598333 149.94923 
L 303.585417 135.521204 
L 307.5725 129.784759 
L 311.559583 132.044571 
L 315.546667 120.397851 
L 319.53375 101.624034 
L 323.520833 100.928707 
L 327.507917 100.581044 
L 331.495 80.764236 
L 335.482083 80.590405 
L 339.469167 83.893206 
L 343.45625 84.414701 
L 347.443333 69.117517 
L 351.430417 65.29322 
L 355.4175 64.945557 
L 359.404583 75.201624 
L 363.391667 77.809099 
" style="fill:none;stroke:#8c564b;stroke-linecap:square;"/>
   </g>
   <g id="patch_3">
    <path d="M 44.425 242.08 
L 44.425 43.8 
" style="fill:none;stroke:#000000;stroke-linecap:square;stroke-linejoin:miter;stroke-width:0.8;"/>
   </g>
   <g id="patch_4">
    <path d="M 403.2625 242.08 
L 403.2625 43.8 
" style="fill:none;stroke:#000000;stroke-linecap:square;stroke-linejoin:miter;stroke-width:0.8;"/>
   </g>
   <g id="patch_5">
    <path d="M 44.425 242.08 
L 403.2625 242.08 
" style="fill:none;stroke:#000000;stroke-linecap:square;stroke-linejoin:miter;stroke-width:0.8;"/>
   </g>
   <g id="patch_6">
    <path d="M 44.425 43.8 
L 403.2625 43.8 
" style="fill:none;stroke:#000000;stroke-linecap:square;stroke-linejoin:miter;stroke-width:0.8;"/>
   </g>
   <g id="text_23">
    <!-- Deaths from all causes* -->
    <defs>
     <path d="M 37.109375 75.984375 
L 37.109375 68.5 
L 28.515625 68.5 
Q 23.6875 68.5 21.796875 66.546875 
Q 19.921875 64.59375 19.921875 59.515625 
L 19.921875 54.6875 
L 34.71875 54.6875 
L 34.71875 47.703125 
L 19.921875 47.703125 
L 19.921875 0 
L 10.890625 0 
L 10.890625 47.703125 
L 2.296875 47.703125 
L 2.296875 54.6875 
L 10.890625 54.6875 
L 10.890625 58.5 
Q 10.890625 67.625 15.140625 71.796875 
Q 19.390625 75.984375 28.609375 75.984375 
z
" id="DejaVuSans-102"/>
     <path d="M 8.5 21.578125 
L 8.5 54.6875 
L 17.484375 54.6875 
L 17.484375 21.921875 
Q 17.484375 14.15625 20.5 10.265625 
Q 23.53125 6.390625 29.59375 6.390625 
Q 36.859375 6.390625 41.078125 11.03125 
Q 45.3125 15.671875 45.3125 23.6875 
L 45.3125 54.6875 
L 54.296875 54.6875 
L 54.296875 0 
L 45.3125 0 
L 45.3125 8.40625 
Q 42.046875 3.421875 37.71875 1 
Q 33.40625 -1.421875 27.6875 -1.421875 
Q 18.265625 -1.421875 13.375 4.4375 
Q 8.5 10.296875 8.5 21.578125 
z
M 31.109375 56 
z
" id="DejaVuSans-117"/>
     <path d="M 47.015625 60.890625 
L 29.5 51.421875 
L 47.015625 41.890625 
L 44.1875 37.109375 
L 27.78125 47.015625 
L 27.78125 28.609375 
L 22.21875 28.609375 
L 22.21875 47.015625 
L 5.8125 37.109375 
L 2.984375 41.890625 
L 20.515625 51.421875 
L 2.984375 60.890625 
L 5.8125 65.71875 
L 22.21875 55.8125 
L 22.21875 74.21875 
L 27.78125 74.21875 
L 27.78125 55.8125 
L 44.1875 65.71875 
z
" id="DejaVuSans-42"/>
    </defs>
    <g transform="translate(152.029375 21.121875)scale(0.12 -0.12)">
     <use xlink:href="#DejaVuSans-68"/>
     <use x="77.001953" xlink:href="#DejaVuSans-101"/>
     <use x="138.525391" xlink:href="#DejaVuSans-97"/>
     <use x="199.804688" xlink:href="#DejaVuSans-116"/>
     <use x="239.013672" xlink:href="#DejaVuSans-104"/>
     <use x="302.392578" xlink:href="#DejaVuSans-115"/>
     <use x="354.492188" xlink:href="#DejaVuSans-32"/>
     <use x="386.279297" xlink:href="#DejaVuSans-102"/>
     <use x="421.484375" xlink:href="#DejaVuSans-114"/>
     <use x="462.566406" xlink:href="#DejaVuSans-111"/>
     <use x="523.748047" xlink:href="#DejaVuSans-109"/>
     <use x="621.160156" xlink:href="#DejaVuSans-32"/>
     <use x="652.947266" xlink:href="#DejaVuSans-97"/>
     <use x="714.226562" xlink:href="#DejaVuSans-108"/>
     <use x="742.009766" xlink:href="#DejaVuSans-108"/>
     <use x="769.792969" xlink:href="#DejaVuSans-32"/>
     <use x="801.580078" xlink:href="#DejaVuSans-99"/>
     <use x="856.560547" xlink:href="#DejaVuSans-97"/>
     <use x="917.839844" xlink:href="#DejaVuSans-117"/>
     <use x="981.21875" xlink:href="#DejaVuSans-115"/>
     <use x="1033.318359" xlink:href="#DejaVuSans-101"/>
     <use x="1094.841797" xlink:href="#DejaVuSans-115"/>
     <use x="1146.941406" xlink:href="#DejaVuSans-42"/>
    </g>
   </g>
   <g id="legend_1">
    <g id="patch_7">
     <path d="M 195.11875 139.86875 
L 252.56875 139.86875 
Q 254.56875 139.86875 254.56875 137.86875 
L 254.56875 50.8 
Q 254.56875 48.8 252.56875 48.8 
L 195.11875 48.8 
Q 193.11875 48.8 193.11875 50.8 
L 193.11875 137.86875 
Q 193.11875 139.86875 195.11875 139.86875 
z
" style="fill:#ffffff;opacity:0.8;stroke:#cccccc;stroke-linejoin:miter;"/>
    </g>
    <g id="line2d_37">
     <path d="M 197.11875 56.898438 
L 217.11875 56.898438 
" style="fill:none;stroke:#1f77b4;stroke-linecap:square;"/>
    </g>
    <g id="line2d_38"/>
    <g id="text_24">
     <!-- 2015 -->
     <g transform="translate(225.11875 60.398438)scale(0.1 -0.1)">
      <use xlink:href="#DejaVuSans-50"/>
      <use x="63.623047" xlink:href="#DejaVuSans-48"/>
      <use x="127.246094" xlink:href="#DejaVuSans-49"/>
      <use x="190.869141" xlink:href="#DejaVuSans-53"/>
     </g>
    </g>
    <g id="line2d_39">
     <path d="M 197.11875 71.576562 
L 217.11875 71.576562 
" style="fill:none;stroke:#ff7f0e;stroke-linecap:square;"/>
    </g>
    <g id="line2d_40"/>
    <g id="text_25">
     <!-- 2016 -->
     <g transform="translate(225.11875 75.076562)scale(0.1 -0.1)">
      <use xlink:href="#DejaVuSans-50"/>
      <use x="63.623047" xlink:href="#DejaVuSans-48"/>
      <use x="127.246094" xlink:href="#DejaVuSans-49"/>
      <use x="190.869141" xlink:href="#DejaVuSans-54"/>
     </g>
    </g>
    <g id="line2d_41">
     <path d="M 197.11875 86.254687 
L 217.11875 86.254687 
" style="fill:none;stroke:#2ca02c;stroke-linecap:square;"/>
    </g>
    <g id="line2d_42"/>
    <g id="text_26">
     <!-- 2017 -->
     <g transform="translate(225.11875 89.754687)scale(0.1 -0.1)">
      <use xlink:href="#DejaVuSans-50"/>
      <use x="63.623047" xlink:href="#DejaVuSans-48"/>
      <use x="127.246094" xlink:href="#DejaVuSans-49"/>
      <use x="190.869141" xlink:href="#DejaVuSans-55"/>
     </g>
    </g>
    <g id="line2d_43">
     <path d="M 197.11875 100.932813 
L 217.11875 100.932813 
" style="fill:none;stroke:#d62728;stroke-linecap:square;"/>
    </g>
    <g id="line2d_44"/>
    <g id="text_27">
     <!-- 2018 -->
     <g transform="translate(225.11875 104.432813)scale(0.1 -0.1)">
      <use xlink:href="#DejaVuSans-50"/>
      <use x="63.623047" xlink:href="#DejaVuSans-48"/>
      <use x="127.246094" xlink:href="#DejaVuSans-49"/>
      <use x="190.869141" xlink:href="#DejaVuSans-56"/>
     </g>
    </g>
    <g id="line2d_45">
     <path d="M 197.11875 115.610938 
L 217.11875 115.610938 
" style="fill:none;stroke:#9467bd;stroke-linecap:square;"/>
    </g>
    <g id="line2d_46"/>
    <g id="text_28">
     <!-- 2019 -->
     <g transform="translate(225.11875 119.110938)scale(0.1 -0.1)">
      <use xlink:href="#DejaVuSans-50"/>
      <use x="63.623047" xlink:href="#DejaVuSans-48"/>
      <use x="127.246094" xlink:href="#DejaVuSans-49"/>
      <use x="190.869141" xlink:href="#DejaVuSans-57"/>
     </g>
    </g>
    <g id="line2d_47">
     <path d="M 197.11875 130.289062 
L 217.11875 130.289062 
" style="fill:none;stroke:#8c564b;stroke-linecap:square;"/>
    </g>
    <g id="line2d_48"/>
    <g id="text_29">
     <!-- 2020 -->
     <g transform="translate(225.11875 133.789062)scale(0.1 -0.1)">
      <use xlink:href="#DejaVuSans-50"/>
      <use x="63.623047" xlink:href="#DejaVuSans-48"/>
      <use x="127.246094" xlink:href="#DejaVuSans-50"/>
      <use x="190.869141" xlink:href="#DejaVuSans-48"/>
     </g>
    </g>
   </g>
  </g>
  <g id="axes_2">
   <g id="matplotlib.axis_3">
    <g id="xtick_11">
     <g id="line2d_49">
      <path clip-path="url(#p36e24e430a)" d="M 44.425 242.08 
L 44.425 43.8 
" style="fill:none;stroke:#b0b0b0;stroke-linecap:square;stroke-width:0.8;"/>
     </g>
     <g id="line2d_50">
      <defs>
       <path d="M 0 0 
L 0 -3.5 
" id="m126512058b" style="stroke:#000000;stroke-width:0.8;"/>
      </defs>
      <g>
       <use style="stroke:#000000;stroke-width:0.8;" x="44.425" xlink:href="#m126512058b" y="43.8"/>
      </g>
     </g>
     <g id="text_30">
      <!-- Jan 1st -->
      <g transform="translate(27.382031 34.720312)scale(0.1 -0.1)">
       <use xlink:href="#DejaVuSans-74"/>
       <use x="29.492188" xlink:href="#DejaVuSans-97"/>
       <use x="90.771484" xlink:href="#DejaVuSans-110"/>
       <use x="154.150391" xlink:href="#DejaVuSans-32"/>
       <use x="185.9375" xlink:href="#DejaVuSans-49"/>
       <use x="249.560547" xlink:href="#DejaVuSans-115"/>
       <use x="301.660156" xlink:href="#DejaVuSans-116"/>
      </g>
     </g>
    </g>
    <g id="xtick_12">
     <g id="line2d_51">
      <path clip-path="url(#p36e24e430a)" d="M 168.024583 242.08 
L 168.024583 43.8 
" style="fill:none;stroke:#b0b0b0;stroke-linecap:square;stroke-width:0.8;"/>
     </g>
     <g id="line2d_52">
      <g>
       <use style="stroke:#000000;stroke-width:0.8;" x="168.024583" xlink:href="#m126512058b" y="43.8"/>
      </g>
     </g>
     <g id="text_31">
      <!-- Feb 1st -->
      <defs>
       <path d="M 9.8125 72.90625 
L 51.703125 72.90625 
L 51.703125 64.59375 
L 19.671875 64.59375 
L 19.671875 43.109375 
L 48.578125 43.109375 
L 48.578125 34.8125 
L 19.671875 34.8125 
L 19.671875 0 
L 9.8125 0 
z
" id="DejaVuSans-70"/>
       <path d="M 48.6875 27.296875 
Q 48.6875 37.203125 44.609375 42.84375 
Q 40.53125 48.484375 33.40625 48.484375 
Q 26.265625 48.484375 22.1875 42.84375 
Q 18.109375 37.203125 18.109375 27.296875 
Q 18.109375 17.390625 22.1875 11.75 
Q 26.265625 6.109375 33.40625 6.109375 
Q 40.53125 6.109375 44.609375 11.75 
Q 48.6875 17.390625 48.6875 27.296875 
z
M 18.109375 46.390625 
Q 20.953125 51.265625 25.265625 53.625 
Q 29.59375 56 35.59375 56 
Q 45.5625 56 51.78125 48.09375 
Q 58.015625 40.1875 58.015625 27.296875 
Q 58.015625 14.40625 51.78125 6.484375 
Q 45.5625 -1.421875 35.59375 -1.421875 
Q 29.59375 -1.421875 25.265625 0.953125 
Q 20.953125 3.328125 18.109375 8.203125 
L 18.109375 0 
L 9.078125 0 
L 9.078125 75.984375 
L 18.109375 75.984375 
z
" id="DejaVuSans-98"/>
      </defs>
      <g transform="translate(149.566771 34.720312)scale(0.1 -0.1)">
       <use xlink:href="#DejaVuSans-70"/>
       <use x="57.441406" xlink:href="#DejaVuSans-101"/>
       <use x="118.964844" xlink:href="#DejaVuSans-98"/>
       <use x="182.441406" xlink:href="#DejaVuSans-32"/>
       <use x="214.228516" xlink:href="#DejaVuSans-49"/>
       <use x="277.851562" xlink:href="#DejaVuSans-115"/>
       <use x="329.951172" xlink:href="#DejaVuSans-116"/>
      </g>
     </g>
    </g>
    <g id="xtick_13">
     <g id="line2d_53">
      <path clip-path="url(#p36e24e430a)" d="M 279.662917 242.08 
L 279.662917 43.8 
" style="fill:none;stroke:#b0b0b0;stroke-linecap:square;stroke-width:0.8;"/>
     </g>
     <g id="line2d_54">
      <g>
       <use style="stroke:#000000;stroke-width:0.8;" x="279.662917" xlink:href="#m126512058b" y="43.8"/>
      </g>
     </g>
     <g id="text_32">
      <!-- Mar 1st -->
      <defs>
       <path d="M 9.8125 72.90625 
L 24.515625 72.90625 
L 43.109375 23.296875 
L 61.8125 72.90625 
L 76.515625 72.90625 
L 76.515625 0 
L 66.890625 0 
L 66.890625 64.015625 
L 48.09375 14.015625 
L 38.1875 14.015625 
L 19.390625 64.015625 
L 19.390625 0 
L 9.8125 0 
z
" id="DejaVuSans-77"/>
      </defs>
      <g transform="translate(260.894167 34.720312)scale(0.1 -0.1)">
       <use xlink:href="#DejaVuSans-77"/>
       <use x="86.279297" xlink:href="#DejaVuSans-97"/>
       <use x="147.558594" xlink:href="#DejaVuSans-114"/>
       <use x="188.671875" xlink:href="#DejaVuSans-32"/>
       <use x="220.458984" xlink:href="#DejaVuSans-49"/>
       <use x="284.082031" xlink:href="#DejaVuSans-115"/>
       <use x="336.181641" xlink:href="#DejaVuSans-116"/>
      </g>
     </g>
    </g>
    <g id="xtick_14">
     <g id="line2d_55">
      <path clip-path="url(#p36e24e430a)" d="M 403.2625 242.08 
L 403.2625 43.8 
" style="fill:none;stroke:#b0b0b0;stroke-linecap:square;stroke-width:0.8;"/>
     </g>
     <g id="line2d_56">
      <g>
       <use style="stroke:#000000;stroke-width:0.8;" x="403.2625" xlink:href="#m126512058b" y="43.8"/>
      </g>
     </g>
     <g id="text_33">
      <!-- Apr 1st -->
      <defs>
       <path d="M 34.1875 63.1875 
L 20.796875 26.90625 
L 47.609375 26.90625 
z
M 28.609375 72.90625 
L 39.796875 72.90625 
L 67.578125 0 
L 57.328125 0 
L 50.6875 18.703125 
L 17.828125 18.703125 
L 11.1875 0 
L 0.78125 0 
z
" id="DejaVuSans-65"/>
      </defs>
      <g transform="translate(385.277344 34.720312)scale(0.1 -0.1)">
       <use xlink:href="#DejaVuSans-65"/>
       <use x="68.408203" xlink:href="#DejaVuSans-112"/>
       <use x="131.884766" xlink:href="#DejaVuSans-114"/>
       <use x="172.998047" xlink:href="#DejaVuSans-32"/>
       <use x="204.785156" xlink:href="#DejaVuSans-49"/>
       <use x="268.408203" xlink:href="#DejaVuSans-115"/>
       <use x="320.507812" xlink:href="#DejaVuSans-116"/>
      </g>
     </g>
    </g>
   </g>
   <g id="patch_8">
    <path d="M 44.425 242.08 
L 44.425 43.8 
" style="fill:none;stroke:#000000;stroke-linecap:square;stroke-linejoin:miter;stroke-width:0.8;"/>
   </g>
   <g id="patch_9">
    <path d="M 403.2625 242.08 
L 403.2625 43.8 
" style="fill:none;stroke:#000000;stroke-linecap:square;stroke-linejoin:miter;stroke-width:0.8;"/>
   </g>
   <g id="patch_10">
    <path d="M 44.425 242.08 
L 403.2625 242.08 
" style="fill:none;stroke:#000000;stroke-linecap:square;stroke-linejoin:miter;stroke-width:0.8;"/>
   </g>
   <g id="patch_11">
    <path d="M 44.425 43.8 
L 403.2625 43.8 
" style="fill:none;stroke:#000000;stroke-linecap:square;stroke-linejoin:miter;stroke-width:0.8;"/>
   </g>
   <g id="text_34">
    <!-- *based on a sample of 1084 cities covering 21% of the population. -->
    <defs>
     <path d="M 45.40625 46.390625 
L 45.40625 75.984375 
L 54.390625 75.984375 
L 54.390625 0 
L 45.40625 0 
L 45.40625 8.203125 
Q 42.578125 3.328125 38.25 0.953125 
Q 33.9375 -1.421875 27.875 -1.421875 
Q 17.96875 -1.421875 11.734375 6.484375 
Q 5.515625 14.40625 5.515625 27.296875 
Q 5.515625 40.1875 11.734375 48.09375 
Q 17.96875 56 27.875 56 
Q 33.9375 56 38.25 53.625 
Q 42.578125 51.265625 45.40625 46.390625 
z
M 14.796875 27.296875 
Q 14.796875 17.390625 18.875 11.75 
Q 22.953125 6.109375 30.078125 6.109375 
Q 37.203125 6.109375 41.296875 11.75 
Q 45.40625 17.390625 45.40625 27.296875 
Q 45.40625 37.203125 41.296875 42.84375 
Q 37.203125 48.484375 30.078125 48.484375 
Q 22.953125 48.484375 18.875 42.84375 
Q 14.796875 37.203125 14.796875 27.296875 
z
" id="DejaVuSans-100"/>
     <path d="M 2.984375 54.6875 
L 12.5 54.6875 
L 29.59375 8.796875 
L 46.6875 54.6875 
L 56.203125 54.6875 
L 35.6875 0 
L 23.484375 0 
z
" id="DejaVuSans-118"/>
     <path d="M 45.40625 27.984375 
Q 45.40625 37.75 41.375 43.109375 
Q 37.359375 48.484375 30.078125 48.484375 
Q 22.859375 48.484375 18.828125 43.109375 
Q 14.796875 37.75 14.796875 27.984375 
Q 14.796875 18.265625 18.828125 12.890625 
Q 22.859375 7.515625 30.078125 7.515625 
Q 37.359375 7.515625 41.375 12.890625 
Q 45.40625 18.265625 45.40625 27.984375 
z
M 54.390625 6.78125 
Q 54.390625 -7.171875 48.1875 -13.984375 
Q 42 -20.796875 29.203125 -20.796875 
Q 24.46875 -20.796875 20.265625 -20.09375 
Q 16.0625 -19.390625 12.109375 -17.921875 
L 12.109375 -9.1875 
Q 16.0625 -11.328125 19.921875 -12.34375 
Q 23.78125 -13.375 27.78125 -13.375 
Q 36.625 -13.375 41.015625 -8.765625 
Q 45.40625 -4.15625 45.40625 5.171875 
L 45.40625 9.625 
Q 42.625 4.78125 38.28125 2.390625 
Q 33.9375 0 27.875 0 
Q 17.828125 0 11.671875 7.65625 
Q 5.515625 15.328125 5.515625 27.984375 
Q 5.515625 40.671875 11.671875 48.328125 
Q 17.828125 56 27.875 56 
Q 33.9375 56 38.28125 53.609375 
Q 42.625 51.21875 45.40625 46.390625 
L 45.40625 54.6875 
L 54.390625 54.6875 
z
" id="DejaVuSans-103"/>
     <path d="M 72.703125 32.078125 
Q 68.453125 32.078125 66.03125 28.46875 
Q 63.625 24.859375 63.625 18.40625 
Q 63.625 12.0625 66.03125 8.421875 
Q 68.453125 4.78125 72.703125 4.78125 
Q 76.859375 4.78125 79.265625 8.421875 
Q 81.6875 12.0625 81.6875 18.40625 
Q 81.6875 24.8125 79.265625 28.4375 
Q 76.859375 32.078125 72.703125 32.078125 
z
M 72.703125 38.28125 
Q 80.421875 38.28125 84.953125 32.90625 
Q 89.5 27.546875 89.5 18.40625 
Q 89.5 9.28125 84.9375 3.921875 
Q 80.375 -1.421875 72.703125 -1.421875 
Q 64.890625 -1.421875 60.34375 3.921875 
Q 55.8125 9.28125 55.8125 18.40625 
Q 55.8125 27.59375 60.375 32.9375 
Q 64.9375 38.28125 72.703125 38.28125 
z
M 22.3125 68.015625 
Q 18.109375 68.015625 15.6875 64.375 
Q 13.28125 60.75 13.28125 54.390625 
Q 13.28125 47.953125 15.671875 44.328125 
Q 18.0625 40.71875 22.3125 40.71875 
Q 26.5625 40.71875 28.96875 44.328125 
Q 31.390625 47.953125 31.390625 54.390625 
Q 31.390625 60.6875 28.953125 64.34375 
Q 26.515625 68.015625 22.3125 68.015625 
z
M 66.40625 74.21875 
L 74.21875 74.21875 
L 28.609375 -1.421875 
L 20.796875 -1.421875 
z
M 22.3125 74.21875 
Q 30.03125 74.21875 34.609375 68.875 
Q 39.203125 63.53125 39.203125 54.390625 
Q 39.203125 45.171875 34.640625 39.84375 
Q 30.078125 34.515625 22.3125 34.515625 
Q 14.546875 34.515625 10.03125 39.859375 
Q 5.515625 45.21875 5.515625 54.390625 
Q 5.515625 63.484375 10.046875 68.84375 
Q 14.59375 74.21875 22.3125 74.21875 
z
" id="DejaVuSans-37"/>
     <path d="M 10.6875 12.40625 
L 21 12.40625 
L 21 0 
L 10.6875 0 
z
" id="DejaVuSans-46"/>
    </defs>
    <g transform="translate(43.2 285.12)scale(0.1 -0.1)">
     <use xlink:href="#DejaVuSans-42"/>
     <use x="50" xlink:href="#DejaVuSans-98"/>
     <use x="113.476562" xlink:href="#DejaVuSans-97"/>
     <use x="174.755859" xlink:href="#DejaVuSans-115"/>
     <use x="226.855469" xlink:href="#DejaVuSans-101"/>
     <use x="288.378906" xlink:href="#DejaVuSans-100"/>
     <use x="351.855469" xlink:href="#DejaVuSans-32"/>
     <use x="383.642578" xlink:href="#DejaVuSans-111"/>
     <use x="444.824219" xlink:href="#DejaVuSans-110"/>
     <use x="508.203125" xlink:href="#DejaVuSans-32"/>
     <use x="539.990234" xlink:href="#DejaVuSans-97"/>
     <use x="601.269531" xlink:href="#DejaVuSans-32"/>
     <use x="633.056641" xlink:href="#DejaVuSans-115"/>
     <use x="685.15625" xlink:href="#DejaVuSans-97"/>
     <use x="746.435547" xlink:href="#DejaVuSans-109"/>
     <use x="843.847656" xlink:href="#DejaVuSans-112"/>
     <use x="907.324219" xlink:href="#DejaVuSans-108"/>
     <use x="935.107422" xlink:href="#DejaVuSans-101"/>
     <use x="996.630859" xlink:href="#DejaVuSans-32"/>
     <use x="1028.417969" xlink:href="#DejaVuSans-111"/>
     <use x="1089.599609" xlink:href="#DejaVuSans-102"/>
     <use x="1124.804688" xlink:href="#DejaVuSans-32"/>
     <use x="1156.591797" xlink:href="#DejaVuSans-49"/>
     <use x="1220.214844" xlink:href="#DejaVuSans-48"/>
     <use x="1283.837891" xlink:href="#DejaVuSans-56"/>
     <use x="1347.460938" xlink:href="#DejaVuSans-52"/>
     <use x="1411.083984" xlink:href="#DejaVuSans-32"/>
     <use x="1442.871094" xlink:href="#DejaVuSans-99"/>
     <use x="1497.851562" xlink:href="#DejaVuSans-105"/>
     <use x="1525.634766" xlink:href="#DejaVuSans-116"/>
     <use x="1564.84375" xlink:href="#DejaVuSans-105"/>
     <use x="1592.626953" xlink:href="#DejaVuSans-101"/>
     <use x="1654.150391" xlink:href="#DejaVuSans-115"/>
     <use x="1706.25" xlink:href="#DejaVuSans-32"/>
     <use x="1738.037109" xlink:href="#DejaVuSans-99"/>
     <use x="1793.017578" xlink:href="#DejaVuSans-111"/>
     <use x="1854.199219" xlink:href="#DejaVuSans-118"/>
     <use x="1913.378906" xlink:href="#DejaVuSans-101"/>
     <use x="1974.902344" xlink:href="#DejaVuSans-114"/>
     <use x="2016.015625" xlink:href="#DejaVuSans-105"/>
     <use x="2043.798828" xlink:href="#DejaVuSans-110"/>
     <use x="2107.177734" xlink:href="#DejaVuSans-103"/>
     <use x="2170.654297" xlink:href="#DejaVuSans-32"/>
     <use x="2202.441406" xlink:href="#DejaVuSans-50"/>
     <use x="2266.064453" xlink:href="#DejaVuSans-49"/>
     <use x="2329.6875" xlink:href="#DejaVuSans-37"/>
     <use x="2424.707031" xlink:href="#DejaVuSans-32"/>
     <use x="2456.494141" xlink:href="#DejaVuSans-111"/>
     <use x="2517.675781" xlink:href="#DejaVuSans-102"/>
     <use x="2552.880859" xlink:href="#DejaVuSans-32"/>
     <use x="2584.667969" xlink:href="#DejaVuSans-116"/>
     <use x="2623.876953" xlink:href="#DejaVuSans-104"/>
     <use x="2687.255859" xlink:href="#DejaVuSans-101"/>
     <use x="2748.779297" xlink:href="#DejaVuSans-32"/>
     <use x="2780.566406" xlink:href="#DejaVuSans-112"/>
     <use x="2844.042969" xlink:href="#DejaVuSans-111"/>
     <use x="2905.224609" xlink:href="#DejaVuSans-112"/>
     <use x="2968.701172" xlink:href="#DejaVuSans-117"/>
     <use x="3032.080078" xlink:href="#DejaVuSans-108"/>
     <use x="3059.863281" xlink:href="#DejaVuSans-97"/>
     <use x="3121.142578" xlink:href="#DejaVuSans-116"/>
     <use x="3160.351562" xlink:href="#DejaVuSans-105"/>
     <use x="3188.134766" xlink:href="#DejaVuSans-111"/>
     <use x="3249.316406" xlink:href="#DejaVuSans-110"/>
     <use x="3312.695312" xlink:href="#DejaVuSans-46"/>
    </g>
   </g>
  </g>
 </g>
 <defs>
  <clipPath id="p36e24e430a">
   <rect height="198.28" width="358.8375" x="44.425" y="43.8"/>
  </clipPath>
 </defs>
</svg>
