<?xml version="1.0" encoding="utf-8" standalone="no"?>
<!DOCTYPE svg PUBLIC "-//W3C//DTD SVG 1.1//EN"
  "http://www.w3.org/Graphics/SVG/1.1/DTD/svg11.dtd">
<!-- Created with matplotlib (https://matplotlib.org/) -->
<svg height="288pt" version="1.1" viewBox="0 0 432 288" width="432pt" xmlns="http://www.w3.org/2000/svg" xmlns:xlink="http://www.w3.org/1999/xlink">
 <defs>
  <style type="text/css">
*{stroke-linecap:butt;stroke-linejoin:round;}
  </style>
 </defs>
 <g id="figure_1">
  <g id="patch_1">
   <path d="M 0 288 
L 432 288 
L 432 0 
L 0 0 
z
" style="fill:#ffffff;"/>
  </g>
  <g id="axes_1">
   <g id="patch_2">
    <path d="M 44.425 242.08 
L 411.7625 242.08 
L 411.7625 43.8 
L 44.425 43.8 
z
" style="fill:#ffffff;"/>
   </g>
   <g id="matplotlib.axis_1">
    <g id="xtick_1">
     <g id="line2d_1">
      <defs>
       <path d="M 0 0 
L 0 3.5 
" id="m1fe010a40f" style="stroke:#000000;stroke-width:0.8;"/>
      </defs>
      <g>
       <use style="stroke:#000000;stroke-width:0.8;" x="44.425" xlink:href="#m1fe010a40f" y="242.08"/>
      </g>
     </g>
     <g id="text_1">
      <!-- 0 -->
      <defs>
       <path d="M 31.78125 66.40625 
Q 24.171875 66.40625 20.328125 58.90625 
Q 16.5 51.421875 16.5 36.375 
Q 16.5 21.390625 20.328125 13.890625 
Q 24.171875 6.390625 31.78125 6.390625 
Q 39.453125 6.390625 43.28125 13.890625 
Q 47.125 21.390625 47.125 36.375 
Q 47.125 51.421875 43.28125 58.90625 
Q 39.453125 66.40625 31.78125 66.40625 
z
M 31.78125 74.21875 
Q 44.046875 74.21875 50.515625 64.515625 
Q 56.984375 54.828125 56.984375 36.375 
Q 56.984375 17.96875 50.515625 8.265625 
Q 44.046875 -1.421875 31.78125 -1.421875 
Q 19.53125 -1.421875 13.0625 8.265625 
Q 6.59375 17.96875 6.59375 36.375 
Q 6.59375 54.828125 13.0625 64.515625 
Q 19.53125 74.21875 31.78125 74.21875 
z
" id="DejaVuSans-48"/>
      </defs>
      <g transform="translate(41.24375 256.678438)scale(0.1 -0.1)">
       <use xlink:href="#DejaVuSans-48"/>
      </g>
     </g>
    </g>
    <g id="xtick_2">
     <g id="line2d_2">
      <g>
       <use style="stroke:#000000;stroke-width:0.8;" x="117.8925" xlink:href="#m1fe010a40f" y="242.08"/>
      </g>
     </g>
     <g id="text_2">
      <!-- 20 -->
      <defs>
       <path d="M 19.1875 8.296875 
L 53.609375 8.296875 
L 53.609375 0 
L 7.328125 0 
L 7.328125 8.296875 
Q 12.9375 14.109375 22.625 23.890625 
Q 32.328125 33.6875 34.8125 36.53125 
Q 39.546875 41.84375 41.421875 45.53125 
Q 43.3125 49.21875 43.3125 52.78125 
Q 43.3125 58.59375 39.234375 62.25 
Q 35.15625 65.921875 28.609375 65.921875 
Q 23.96875 65.921875 18.8125 64.3125 
Q 13.671875 62.703125 7.8125 59.421875 
L 7.8125 69.390625 
Q 13.765625 71.78125 18.9375 73 
Q 24.125 74.21875 28.421875 74.21875 
Q 39.75 74.21875 46.484375 68.546875 
Q 53.21875 62.890625 53.21875 53.421875 
Q 53.21875 48.921875 51.53125 44.890625 
Q 49.859375 40.875 45.40625 35.40625 
Q 44.1875 33.984375 37.640625 27.21875 
Q 31.109375 20.453125 19.1875 8.296875 
z
" id="DejaVuSans-50"/>
      </defs>
      <g transform="translate(111.53 256.678438)scale(0.1 -0.1)">
       <use xlink:href="#DejaVuSans-50"/>
       <use x="63.623047" xlink:href="#DejaVuSans-48"/>
      </g>
     </g>
    </g>
    <g id="xtick_3">
     <g id="line2d_3">
      <g>
       <use style="stroke:#000000;stroke-width:0.8;" x="191.36" xlink:href="#m1fe010a40f" y="242.08"/>
      </g>
     </g>
     <g id="text_3">
      <!-- 40 -->
      <defs>
       <path d="M 37.796875 64.3125 
L 12.890625 25.390625 
L 37.796875 25.390625 
z
M 35.203125 72.90625 
L 47.609375 72.90625 
L 47.609375 25.390625 
L 58.015625 25.390625 
L 58.015625 17.1875 
L 47.609375 17.1875 
L 47.609375 0 
L 37.796875 0 
L 37.796875 17.1875 
L 4.890625 17.1875 
L 4.890625 26.703125 
z
" id="DejaVuSans-52"/>
      </defs>
      <g transform="translate(184.9975 256.678438)scale(0.1 -0.1)">
       <use xlink:href="#DejaVuSans-52"/>
       <use x="63.623047" xlink:href="#DejaVuSans-48"/>
      </g>
     </g>
    </g>
    <g id="xtick_4">
     <g id="line2d_4">
      <g>
       <use style="stroke:#000000;stroke-width:0.8;" x="264.8275" xlink:href="#m1fe010a40f" y="242.08"/>
      </g>
     </g>
     <g id="text_4">
      <!-- 60 -->
      <defs>
       <path d="M 33.015625 40.375 
Q 26.375 40.375 22.484375 35.828125 
Q 18.609375 31.296875 18.609375 23.390625 
Q 18.609375 15.53125 22.484375 10.953125 
Q 26.375 6.390625 33.015625 6.390625 
Q 39.65625 6.390625 43.53125 10.953125 
Q 47.40625 15.53125 47.40625 23.390625 
Q 47.40625 31.296875 43.53125 35.828125 
Q 39.65625 40.375 33.015625 40.375 
z
M 52.59375 71.296875 
L 52.59375 62.3125 
Q 48.875 64.0625 45.09375 64.984375 
Q 41.3125 65.921875 37.59375 65.921875 
Q 27.828125 65.921875 22.671875 59.328125 
Q 17.53125 52.734375 16.796875 39.40625 
Q 19.671875 43.65625 24.015625 45.921875 
Q 28.375 48.1875 33.59375 48.1875 
Q 44.578125 48.1875 50.953125 41.515625 
Q 57.328125 34.859375 57.328125 23.390625 
Q 57.328125 12.15625 50.6875 5.359375 
Q 44.046875 -1.421875 33.015625 -1.421875 
Q 20.359375 -1.421875 13.671875 8.265625 
Q 6.984375 17.96875 6.984375 36.375 
Q 6.984375 53.65625 15.1875 63.9375 
Q 23.390625 74.21875 37.203125 74.21875 
Q 40.921875 74.21875 44.703125 73.484375 
Q 48.484375 72.75 52.59375 71.296875 
z
" id="DejaVuSans-54"/>
      </defs>
      <g transform="translate(258.465 256.678438)scale(0.1 -0.1)">
       <use xlink:href="#DejaVuSans-54"/>
       <use x="63.623047" xlink:href="#DejaVuSans-48"/>
      </g>
     </g>
    </g>
    <g id="xtick_5">
     <g id="line2d_5">
      <g>
       <use style="stroke:#000000;stroke-width:0.8;" x="338.295" xlink:href="#m1fe010a40f" y="242.08"/>
      </g>
     </g>
     <g id="text_5">
      <!-- 80 -->
      <defs>
       <path d="M 31.78125 34.625 
Q 24.75 34.625 20.71875 30.859375 
Q 16.703125 27.09375 16.703125 20.515625 
Q 16.703125 13.921875 20.71875 10.15625 
Q 24.75 6.390625 31.78125 6.390625 
Q 38.8125 6.390625 42.859375 10.171875 
Q 46.921875 13.96875 46.921875 20.515625 
Q 46.921875 27.09375 42.890625 30.859375 
Q 38.875 34.625 31.78125 34.625 
z
M 21.921875 38.8125 
Q 15.578125 40.375 12.03125 44.71875 
Q 8.5 49.078125 8.5 55.328125 
Q 8.5 64.0625 14.71875 69.140625 
Q 20.953125 74.21875 31.78125 74.21875 
Q 42.671875 74.21875 48.875 69.140625 
Q 55.078125 64.0625 55.078125 55.328125 
Q 55.078125 49.078125 51.53125 44.71875 
Q 48 40.375 41.703125 38.8125 
Q 48.828125 37.15625 52.796875 32.3125 
Q 56.78125 27.484375 56.78125 20.515625 
Q 56.78125 9.90625 50.3125 4.234375 
Q 43.84375 -1.421875 31.78125 -1.421875 
Q 19.734375 -1.421875 13.25 4.234375 
Q 6.78125 9.90625 6.78125 20.515625 
Q 6.78125 27.484375 10.78125 32.3125 
Q 14.796875 37.15625 21.921875 38.8125 
z
M 18.3125 54.390625 
Q 18.3125 48.734375 21.84375 45.5625 
Q 25.390625 42.390625 31.78125 42.390625 
Q 38.140625 42.390625 41.71875 45.5625 
Q 45.3125 48.734375 45.3125 54.390625 
Q 45.3125 60.0625 41.71875 63.234375 
Q 38.140625 66.40625 31.78125 66.40625 
Q 25.390625 66.40625 21.84375 63.234375 
Q 18.3125 60.0625 18.3125 54.390625 
z
" id="DejaVuSans-56"/>
      </defs>
      <g transform="translate(331.9325 256.678438)scale(0.1 -0.1)">
       <use xlink:href="#DejaVuSans-56"/>
       <use x="63.623047" xlink:href="#DejaVuSans-48"/>
      </g>
     </g>
    </g>
    <g id="xtick_6">
     <g id="line2d_6">
      <g>
       <use style="stroke:#000000;stroke-width:0.8;" x="411.7625" xlink:href="#m1fe010a40f" y="242.08"/>
      </g>
     </g>
     <g id="text_6">
      <!-- 100 -->
      <defs>
       <path d="M 12.40625 8.296875 
L 28.515625 8.296875 
L 28.515625 63.921875 
L 10.984375 60.40625 
L 10.984375 69.390625 
L 28.421875 72.90625 
L 38.28125 72.90625 
L 38.28125 8.296875 
L 54.390625 8.296875 
L 54.390625 0 
L 12.40625 0 
z
" id="DejaVuSans-49"/>
      </defs>
      <g transform="translate(402.21875 256.678438)scale(0.1 -0.1)">
       <use xlink:href="#DejaVuSans-49"/>
       <use x="63.623047" xlink:href="#DejaVuSans-48"/>
       <use x="127.246094" xlink:href="#DejaVuSans-48"/>
      </g>
     </g>
    </g>
    <g id="text_7">
     <!-- Days since Jan 1st -->
     <defs>
      <path d="M 19.671875 64.796875 
L 19.671875 8.109375 
L 31.59375 8.109375 
Q 46.6875 8.109375 53.6875 14.9375 
Q 60.6875 21.78125 60.6875 36.53125 
Q 60.6875 51.171875 53.6875 57.984375 
Q 46.6875 64.796875 31.59375 64.796875 
z
M 9.8125 72.90625 
L 30.078125 72.90625 
Q 51.265625 72.90625 61.171875 64.09375 
Q 71.09375 55.28125 71.09375 36.53125 
Q 71.09375 17.671875 61.125 8.828125 
Q 51.171875 0 30.078125 0 
L 9.8125 0 
z
" id="DejaVuSans-68"/>
      <path d="M 34.28125 27.484375 
Q 23.390625 27.484375 19.1875 25 
Q 14.984375 22.515625 14.984375 16.5 
Q 14.984375 11.71875 18.140625 8.90625 
Q 21.296875 6.109375 26.703125 6.109375 
Q 34.1875 6.109375 38.703125 11.40625 
Q 43.21875 16.703125 43.21875 25.484375 
L 43.21875 27.484375 
z
M 52.203125 31.203125 
L 52.203125 0 
L 43.21875 0 
L 43.21875 8.296875 
Q 40.140625 3.328125 35.546875 0.953125 
Q 30.953125 -1.421875 24.3125 -1.421875 
Q 15.921875 -1.421875 10.953125 3.296875 
Q 6 8.015625 6 15.921875 
Q 6 25.140625 12.171875 29.828125 
Q 18.359375 34.515625 30.609375 34.515625 
L 43.21875 34.515625 
L 43.21875 35.40625 
Q 43.21875 41.609375 39.140625 45 
Q 35.0625 48.390625 27.6875 48.390625 
Q 23 48.390625 18.546875 47.265625 
Q 14.109375 46.140625 10.015625 43.890625 
L 10.015625 52.203125 
Q 14.9375 54.109375 19.578125 55.046875 
Q 24.21875 56 28.609375 56 
Q 40.484375 56 46.34375 49.84375 
Q 52.203125 43.703125 52.203125 31.203125 
z
" id="DejaVuSans-97"/>
      <path d="M 32.171875 -5.078125 
Q 28.375 -14.84375 24.75 -17.8125 
Q 21.140625 -20.796875 15.09375 -20.796875 
L 7.90625 -20.796875 
L 7.90625 -13.28125 
L 13.1875 -13.28125 
Q 16.890625 -13.28125 18.9375 -11.515625 
Q 21 -9.765625 23.484375 -3.21875 
L 25.09375 0.875 
L 2.984375 54.6875 
L 12.5 54.6875 
L 29.59375 11.921875 
L 46.6875 54.6875 
L 56.203125 54.6875 
z
" id="DejaVuSans-121"/>
      <path d="M 44.28125 53.078125 
L 44.28125 44.578125 
Q 40.484375 46.53125 36.375 47.5 
Q 32.28125 48.484375 27.875 48.484375 
Q 21.1875 48.484375 17.84375 46.4375 
Q 14.5 44.390625 14.5 40.28125 
Q 14.5 37.15625 16.890625 35.375 
Q 19.28125 33.59375 26.515625 31.984375 
L 29.59375 31.296875 
Q 39.15625 29.25 43.1875 25.515625 
Q 47.21875 21.78125 47.21875 15.09375 
Q 47.21875 7.46875 41.1875 3.015625 
Q 35.15625 -1.421875 24.609375 -1.421875 
Q 20.21875 -1.421875 15.453125 -0.5625 
Q 10.6875 0.296875 5.421875 2 
L 5.421875 11.28125 
Q 10.40625 8.6875 15.234375 7.390625 
Q 20.0625 6.109375 24.8125 6.109375 
Q 31.15625 6.109375 34.5625 8.28125 
Q 37.984375 10.453125 37.984375 14.40625 
Q 37.984375 18.0625 35.515625 20.015625 
Q 33.0625 21.96875 24.703125 23.78125 
L 21.578125 24.515625 
Q 13.234375 26.265625 9.515625 29.90625 
Q 5.8125 33.546875 5.8125 39.890625 
Q 5.8125 47.609375 11.28125 51.796875 
Q 16.75 56 26.8125 56 
Q 31.78125 56 36.171875 55.265625 
Q 40.578125 54.546875 44.28125 53.078125 
z
" id="DejaVuSans-115"/>
      <path id="DejaVuSans-32"/>
      <path d="M 9.421875 54.6875 
L 18.40625 54.6875 
L 18.40625 0 
L 9.421875 0 
z
M 9.421875 75.984375 
L 18.40625 75.984375 
L 18.40625 64.59375 
L 9.421875 64.59375 
z
" id="DejaVuSans-105"/>
      <path d="M 54.890625 33.015625 
L 54.890625 0 
L 45.90625 0 
L 45.90625 32.71875 
Q 45.90625 40.484375 42.875 44.328125 
Q 39.84375 48.1875 33.796875 48.1875 
Q 26.515625 48.1875 22.3125 43.546875 
Q 18.109375 38.921875 18.109375 30.90625 
L 18.109375 0 
L 9.078125 0 
L 9.078125 54.6875 
L 18.109375 54.6875 
L 18.109375 46.1875 
Q 21.34375 51.125 25.703125 53.5625 
Q 30.078125 56 35.796875 56 
Q 45.21875 56 50.046875 50.171875 
Q 54.890625 44.34375 54.890625 33.015625 
z
" id="DejaVuSans-110"/>
      <path d="M 48.78125 52.59375 
L 48.78125 44.1875 
Q 44.96875 46.296875 41.140625 47.34375 
Q 37.3125 48.390625 33.40625 48.390625 
Q 24.65625 48.390625 19.8125 42.84375 
Q 14.984375 37.3125 14.984375 27.296875 
Q 14.984375 17.28125 19.8125 11.734375 
Q 24.65625 6.203125 33.40625 6.203125 
Q 37.3125 6.203125 41.140625 7.25 
Q 44.96875 8.296875 48.78125 10.40625 
L 48.78125 2.09375 
Q 45.015625 0.34375 40.984375 -0.53125 
Q 36.96875 -1.421875 32.421875 -1.421875 
Q 20.0625 -1.421875 12.78125 6.34375 
Q 5.515625 14.109375 5.515625 27.296875 
Q 5.515625 40.671875 12.859375 48.328125 
Q 20.21875 56 33.015625 56 
Q 37.15625 56 41.109375 55.140625 
Q 45.0625 54.296875 48.78125 52.59375 
z
" id="DejaVuSans-99"/>
      <path d="M 56.203125 29.59375 
L 56.203125 25.203125 
L 14.890625 25.203125 
Q 15.484375 15.921875 20.484375 11.0625 
Q 25.484375 6.203125 34.421875 6.203125 
Q 39.59375 6.203125 44.453125 7.46875 
Q 49.3125 8.734375 54.109375 11.28125 
L 54.109375 2.78125 
Q 49.265625 0.734375 44.1875 -0.34375 
Q 39.109375 -1.421875 33.890625 -1.421875 
Q 20.796875 -1.421875 13.15625 6.1875 
Q 5.515625 13.8125 5.515625 26.8125 
Q 5.515625 40.234375 12.765625 48.109375 
Q 20.015625 56 32.328125 56 
Q 43.359375 56 49.78125 48.890625 
Q 56.203125 41.796875 56.203125 29.59375 
z
M 47.21875 32.234375 
Q 47.125 39.59375 43.09375 43.984375 
Q 39.0625 48.390625 32.421875 48.390625 
Q 24.90625 48.390625 20.390625 44.140625 
Q 15.875 39.890625 15.1875 32.171875 
z
" id="DejaVuSans-101"/>
      <path d="M 9.8125 72.90625 
L 19.671875 72.90625 
L 19.671875 5.078125 
Q 19.671875 -8.109375 14.671875 -14.0625 
Q 9.671875 -20.015625 -1.421875 -20.015625 
L -5.171875 -20.015625 
L -5.171875 -11.71875 
L -2.09375 -11.71875 
Q 4.4375 -11.71875 7.125 -8.046875 
Q 9.8125 -4.390625 9.8125 5.078125 
z
" id="DejaVuSans-74"/>
      <path d="M 18.3125 70.21875 
L 18.3125 54.6875 
L 36.8125 54.6875 
L 36.8125 47.703125 
L 18.3125 47.703125 
L 18.3125 18.015625 
Q 18.3125 11.328125 20.140625 9.421875 
Q 21.96875 7.515625 27.59375 7.515625 
L 36.8125 7.515625 
L 36.8125 0 
L 27.59375 0 
Q 17.1875 0 13.234375 3.875 
Q 9.28125 7.765625 9.28125 18.015625 
L 9.28125 47.703125 
L 2.6875 47.703125 
L 2.6875 54.6875 
L 9.28125 54.6875 
L 9.28125 70.21875 
z
" id="DejaVuSans-116"/>
     </defs>
     <g transform="translate(182.40625 270.356562)scale(0.1 -0.1)">
      <use xlink:href="#DejaVuSans-68"/>
      <use x="77.001953" xlink:href="#DejaVuSans-97"/>
      <use x="138.28125" xlink:href="#DejaVuSans-121"/>
      <use x="197.460938" xlink:href="#DejaVuSans-115"/>
      <use x="249.560547" xlink:href="#DejaVuSans-32"/>
      <use x="281.347656" xlink:href="#DejaVuSans-115"/>
      <use x="333.447266" xlink:href="#DejaVuSans-105"/>
      <use x="361.230469" xlink:href="#DejaVuSans-110"/>
      <use x="424.609375" xlink:href="#DejaVuSans-99"/>
      <use x="479.589844" xlink:href="#DejaVuSans-101"/>
      <use x="541.113281" xlink:href="#DejaVuSans-32"/>
      <use x="572.900391" xlink:href="#DejaVuSans-74"/>
      <use x="602.392578" xlink:href="#DejaVuSans-97"/>
      <use x="663.671875" xlink:href="#DejaVuSans-110"/>
      <use x="727.050781" xlink:href="#DejaVuSans-32"/>
      <use x="758.837891" xlink:href="#DejaVuSans-49"/>
      <use x="822.460938" xlink:href="#DejaVuSans-115"/>
      <use x="874.560547" xlink:href="#DejaVuSans-116"/>
     </g>
    </g>
   </g>
   <g id="matplotlib.axis_2">
    <g id="ytick_1">
     <g id="line2d_7">
      <path clip-path="url(#p795d252d37)" d="M 44.425 242.08 
L 411.7625 242.08 
" style="fill:none;stroke:#b0b0b0;stroke-linecap:square;stroke-width:0.8;"/>
     </g>
     <g id="line2d_8">
      <defs>
       <path d="M 0 0 
L -3.5 0 
" id="m8f91ecf77b" style="stroke:#000000;stroke-width:0.8;"/>
      </defs>
      <g>
       <use style="stroke:#000000;stroke-width:0.8;" x="44.425" xlink:href="#m8f91ecf77b" y="242.08"/>
      </g>
     </g>
     <g id="text_8">
      <!-- 0 -->
      <g transform="translate(31.0625 245.879219)scale(0.1 -0.1)">
       <use xlink:href="#DejaVuSans-48"/>
      </g>
     </g>
    </g>
    <g id="ytick_2">
     <g id="line2d_9">
      <path clip-path="url(#p795d252d37)" d="M 44.425 220.048889 
L 411.7625 220.048889 
" style="fill:none;stroke:#b0b0b0;stroke-linecap:square;stroke-width:0.8;"/>
     </g>
     <g id="line2d_10">
      <g>
       <use style="stroke:#000000;stroke-width:0.8;" x="44.425" xlink:href="#m8f91ecf77b" y="220.048889"/>
      </g>
     </g>
     <g id="text_9">
      <!-- 10 -->
      <g transform="translate(24.7 223.848108)scale(0.1 -0.1)">
       <use xlink:href="#DejaVuSans-49"/>
       <use x="63.623047" xlink:href="#DejaVuSans-48"/>
      </g>
     </g>
    </g>
    <g id="ytick_3">
     <g id="line2d_11">
      <path clip-path="url(#p795d252d37)" d="M 44.425 198.017778 
L 411.7625 198.017778 
" style="fill:none;stroke:#b0b0b0;stroke-linecap:square;stroke-width:0.8;"/>
     </g>
     <g id="line2d_12">
      <g>
       <use style="stroke:#000000;stroke-width:0.8;" x="44.425" xlink:href="#m8f91ecf77b" y="198.017778"/>
      </g>
     </g>
     <g id="text_10">
      <!-- 20 -->
      <g transform="translate(24.7 201.816997)scale(0.1 -0.1)">
       <use xlink:href="#DejaVuSans-50"/>
       <use x="63.623047" xlink:href="#DejaVuSans-48"/>
      </g>
     </g>
    </g>
    <g id="ytick_4">
     <g id="line2d_13">
      <path clip-path="url(#p795d252d37)" d="M 44.425 175.986667 
L 411.7625 175.986667 
" style="fill:none;stroke:#b0b0b0;stroke-linecap:square;stroke-width:0.8;"/>
     </g>
     <g id="line2d_14">
      <g>
       <use style="stroke:#000000;stroke-width:0.8;" x="44.425" xlink:href="#m8f91ecf77b" y="175.986667"/>
      </g>
     </g>
     <g id="text_11">
      <!-- 30 -->
      <defs>
       <path d="M 40.578125 39.3125 
Q 47.65625 37.796875 51.625 33 
Q 55.609375 28.21875 55.609375 21.1875 
Q 55.609375 10.40625 48.1875 4.484375 
Q 40.765625 -1.421875 27.09375 -1.421875 
Q 22.515625 -1.421875 17.65625 -0.515625 
Q 12.796875 0.390625 7.625 2.203125 
L 7.625 11.71875 
Q 11.71875 9.328125 16.59375 8.109375 
Q 21.484375 6.890625 26.8125 6.890625 
Q 36.078125 6.890625 40.9375 10.546875 
Q 45.796875 14.203125 45.796875 21.1875 
Q 45.796875 27.640625 41.28125 31.265625 
Q 36.765625 34.90625 28.71875 34.90625 
L 20.21875 34.90625 
L 20.21875 43.015625 
L 29.109375 43.015625 
Q 36.375 43.015625 40.234375 45.921875 
Q 44.09375 48.828125 44.09375 54.296875 
Q 44.09375 59.90625 40.109375 62.90625 
Q 36.140625 65.921875 28.71875 65.921875 
Q 24.65625 65.921875 20.015625 65.03125 
Q 15.375 64.15625 9.8125 62.3125 
L 9.8125 71.09375 
Q 15.4375 72.65625 20.34375 73.4375 
Q 25.25 74.21875 29.59375 74.21875 
Q 40.828125 74.21875 47.359375 69.109375 
Q 53.90625 64.015625 53.90625 55.328125 
Q 53.90625 49.265625 50.4375 45.09375 
Q 46.96875 40.921875 40.578125 39.3125 
z
" id="DejaVuSans-51"/>
      </defs>
      <g transform="translate(24.7 179.785885)scale(0.1 -0.1)">
       <use xlink:href="#DejaVuSans-51"/>
       <use x="63.623047" xlink:href="#DejaVuSans-48"/>
      </g>
     </g>
    </g>
    <g id="ytick_5">
     <g id="line2d_15">
      <path clip-path="url(#p795d252d37)" d="M 44.425 153.955556 
L 411.7625 153.955556 
" style="fill:none;stroke:#b0b0b0;stroke-linecap:square;stroke-width:0.8;"/>
     </g>
     <g id="line2d_16">
      <g>
       <use style="stroke:#000000;stroke-width:0.8;" x="44.425" xlink:href="#m8f91ecf77b" y="153.955556"/>
      </g>
     </g>
     <g id="text_12">
      <!-- 40 -->
      <g transform="translate(24.7 157.754774)scale(0.1 -0.1)">
       <use xlink:href="#DejaVuSans-52"/>
       <use x="63.623047" xlink:href="#DejaVuSans-48"/>
      </g>
     </g>
    </g>
    <g id="ytick_6">
     <g id="line2d_17">
      <path clip-path="url(#p795d252d37)" d="M 44.425 131.924444 
L 411.7625 131.924444 
" style="fill:none;stroke:#b0b0b0;stroke-linecap:square;stroke-width:0.8;"/>
     </g>
     <g id="line2d_18">
      <g>
       <use style="stroke:#000000;stroke-width:0.8;" x="44.425" xlink:href="#m8f91ecf77b" y="131.924444"/>
      </g>
     </g>
     <g id="text_13">
      <!-- 50 -->
      <defs>
       <path d="M 10.796875 72.90625 
L 49.515625 72.90625 
L 49.515625 64.59375 
L 19.828125 64.59375 
L 19.828125 46.734375 
Q 21.96875 47.46875 24.109375 47.828125 
Q 26.265625 48.1875 28.421875 48.1875 
Q 40.625 48.1875 47.75 41.5 
Q 54.890625 34.8125 54.890625 23.390625 
Q 54.890625 11.625 47.5625 5.09375 
Q 40.234375 -1.421875 26.90625 -1.421875 
Q 22.3125 -1.421875 17.546875 -0.640625 
Q 12.796875 0.140625 7.71875 1.703125 
L 7.71875 11.625 
Q 12.109375 9.234375 16.796875 8.0625 
Q 21.484375 6.890625 26.703125 6.890625 
Q 35.15625 6.890625 40.078125 11.328125 
Q 45.015625 15.765625 45.015625 23.390625 
Q 45.015625 31 40.078125 35.4375 
Q 35.15625 39.890625 26.703125 39.890625 
Q 22.75 39.890625 18.8125 39.015625 
Q 14.890625 38.140625 10.796875 36.28125 
z
" id="DejaVuSans-53"/>
      </defs>
      <g transform="translate(24.7 135.723663)scale(0.1 -0.1)">
       <use xlink:href="#DejaVuSans-53"/>
       <use x="63.623047" xlink:href="#DejaVuSans-48"/>
      </g>
     </g>
    </g>
    <g id="ytick_7">
     <g id="line2d_19">
      <path clip-path="url(#p795d252d37)" d="M 44.425 109.893333 
L 411.7625 109.893333 
" style="fill:none;stroke:#b0b0b0;stroke-linecap:square;stroke-width:0.8;"/>
     </g>
     <g id="line2d_20">
      <g>
       <use style="stroke:#000000;stroke-width:0.8;" x="44.425" xlink:href="#m8f91ecf77b" y="109.893333"/>
      </g>
     </g>
     <g id="text_14">
      <!-- 60 -->
      <g transform="translate(24.7 113.692552)scale(0.1 -0.1)">
       <use xlink:href="#DejaVuSans-54"/>
       <use x="63.623047" xlink:href="#DejaVuSans-48"/>
      </g>
     </g>
    </g>
    <g id="ytick_8">
     <g id="line2d_21">
      <path clip-path="url(#p795d252d37)" d="M 44.425 87.862222 
L 411.7625 87.862222 
" style="fill:none;stroke:#b0b0b0;stroke-linecap:square;stroke-width:0.8;"/>
     </g>
     <g id="line2d_22">
      <g>
       <use style="stroke:#000000;stroke-width:0.8;" x="44.425" xlink:href="#m8f91ecf77b" y="87.862222"/>
      </g>
     </g>
     <g id="text_15">
      <!-- 70 -->
      <defs>
       <path d="M 8.203125 72.90625 
L 55.078125 72.90625 
L 55.078125 68.703125 
L 28.609375 0 
L 18.3125 0 
L 43.21875 64.59375 
L 8.203125 64.59375 
z
" id="DejaVuSans-55"/>
      </defs>
      <g transform="translate(24.7 91.661441)scale(0.1 -0.1)">
       <use xlink:href="#DejaVuSans-55"/>
       <use x="63.623047" xlink:href="#DejaVuSans-48"/>
      </g>
     </g>
    </g>
    <g id="ytick_9">
     <g id="line2d_23">
      <path clip-path="url(#p795d252d37)" d="M 44.425 65.831111 
L 411.7625 65.831111 
" style="fill:none;stroke:#b0b0b0;stroke-linecap:square;stroke-width:0.8;"/>
     </g>
     <g id="line2d_24">
      <g>
       <use style="stroke:#000000;stroke-width:0.8;" x="44.425" xlink:href="#m8f91ecf77b" y="65.831111"/>
      </g>
     </g>
     <g id="text_16">
      <!-- 80 -->
      <g transform="translate(24.7 69.63033)scale(0.1 -0.1)">
       <use xlink:href="#DejaVuSans-56"/>
       <use x="63.623047" xlink:href="#DejaVuSans-48"/>
      </g>
     </g>
    </g>
    <g id="ytick_10">
     <g id="line2d_25">
      <path clip-path="url(#p795d252d37)" d="M 44.425 43.8 
L 411.7625 43.8 
" style="fill:none;stroke:#b0b0b0;stroke-linecap:square;stroke-width:0.8;"/>
     </g>
     <g id="line2d_26">
      <g>
       <use style="stroke:#000000;stroke-width:0.8;" x="44.425" xlink:href="#m8f91ecf77b" y="43.8"/>
      </g>
     </g>
     <g id="text_17">
      <!-- 90 -->
      <defs>
       <path d="M 10.984375 1.515625 
L 10.984375 10.5 
Q 14.703125 8.734375 18.5 7.8125 
Q 22.3125 6.890625 25.984375 6.890625 
Q 35.75 6.890625 40.890625 13.453125 
Q 46.046875 20.015625 46.78125 33.40625 
Q 43.953125 29.203125 39.59375 26.953125 
Q 35.25 24.703125 29.984375 24.703125 
Q 19.046875 24.703125 12.671875 31.3125 
Q 6.296875 37.9375 6.296875 49.421875 
Q 6.296875 60.640625 12.9375 67.421875 
Q 19.578125 74.21875 30.609375 74.21875 
Q 43.265625 74.21875 49.921875 64.515625 
Q 56.59375 54.828125 56.59375 36.375 
Q 56.59375 19.140625 48.40625 8.859375 
Q 40.234375 -1.421875 26.421875 -1.421875 
Q 22.703125 -1.421875 18.890625 -0.6875 
Q 15.09375 0.046875 10.984375 1.515625 
z
M 30.609375 32.421875 
Q 37.25 32.421875 41.125 36.953125 
Q 45.015625 41.5 45.015625 49.421875 
Q 45.015625 57.28125 41.125 61.84375 
Q 37.25 66.40625 30.609375 66.40625 
Q 23.96875 66.40625 20.09375 61.84375 
Q 16.21875 57.28125 16.21875 49.421875 
Q 16.21875 41.5 20.09375 36.953125 
Q 23.96875 32.421875 30.609375 32.421875 
z
" id="DejaVuSans-57"/>
      </defs>
      <g transform="translate(24.7 47.599219)scale(0.1 -0.1)">
       <use xlink:href="#DejaVuSans-57"/>
       <use x="63.623047" xlink:href="#DejaVuSans-48"/>
      </g>
     </g>
    </g>
    <g id="text_18">
     <!-- Deaths per 1 million people -->
     <defs>
      <path d="M 54.890625 33.015625 
L 54.890625 0 
L 45.90625 0 
L 45.90625 32.71875 
Q 45.90625 40.484375 42.875 44.328125 
Q 39.84375 48.1875 33.796875 48.1875 
Q 26.515625 48.1875 22.3125 43.546875 
Q 18.109375 38.921875 18.109375 30.90625 
L 18.109375 0 
L 9.078125 0 
L 9.078125 75.984375 
L 18.109375 75.984375 
L 18.109375 46.1875 
Q 21.34375 51.125 25.703125 53.5625 
Q 30.078125 56 35.796875 56 
Q 45.21875 56 50.046875 50.171875 
Q 54.890625 44.34375 54.890625 33.015625 
z
" id="DejaVuSans-104"/>
      <path d="M 18.109375 8.203125 
L 18.109375 -20.796875 
L 9.078125 -20.796875 
L 9.078125 54.6875 
L 18.109375 54.6875 
L 18.109375 46.390625 
Q 20.953125 51.265625 25.265625 53.625 
Q 29.59375 56 35.59375 56 
Q 45.5625 56 51.78125 48.09375 
Q 58.015625 40.1875 58.015625 27.296875 
Q 58.015625 14.40625 51.78125 6.484375 
Q 45.5625 -1.421875 35.59375 -1.421875 
Q 29.59375 -1.421875 25.265625 0.953125 
Q 20.953125 3.328125 18.109375 8.203125 
z
M 48.6875 27.296875 
Q 48.6875 37.203125 44.609375 42.84375 
Q 40.53125 48.484375 33.40625 48.484375 
Q 26.265625 48.484375 22.1875 42.84375 
Q 18.109375 37.203125 18.109375 27.296875 
Q 18.109375 17.390625 22.1875 11.75 
Q 26.265625 6.109375 33.40625 6.109375 
Q 40.53125 6.109375 44.609375 11.75 
Q 48.6875 17.390625 48.6875 27.296875 
z
" id="DejaVuSans-112"/>
      <path d="M 41.109375 46.296875 
Q 39.59375 47.171875 37.8125 47.578125 
Q 36.03125 48 33.890625 48 
Q 26.265625 48 22.1875 43.046875 
Q 18.109375 38.09375 18.109375 28.8125 
L 18.109375 0 
L 9.078125 0 
L 9.078125 54.6875 
L 18.109375 54.6875 
L 18.109375 46.1875 
Q 20.953125 51.171875 25.484375 53.578125 
Q 30.03125 56 36.53125 56 
Q 37.453125 56 38.578125 55.875 
Q 39.703125 55.765625 41.0625 55.515625 
z
" id="DejaVuSans-114"/>
      <path d="M 52 44.1875 
Q 55.375 50.25 60.0625 53.125 
Q 64.75 56 71.09375 56 
Q 79.640625 56 84.28125 50.015625 
Q 88.921875 44.046875 88.921875 33.015625 
L 88.921875 0 
L 79.890625 0 
L 79.890625 32.71875 
Q 79.890625 40.578125 77.09375 44.375 
Q 74.3125 48.1875 68.609375 48.1875 
Q 61.625 48.1875 57.5625 43.546875 
Q 53.515625 38.921875 53.515625 30.90625 
L 53.515625 0 
L 44.484375 0 
L 44.484375 32.71875 
Q 44.484375 40.625 41.703125 44.40625 
Q 38.921875 48.1875 33.109375 48.1875 
Q 26.21875 48.1875 22.15625 43.53125 
Q 18.109375 38.875 18.109375 30.90625 
L 18.109375 0 
L 9.078125 0 
L 9.078125 54.6875 
L 18.109375 54.6875 
L 18.109375 46.1875 
Q 21.1875 51.21875 25.484375 53.609375 
Q 29.78125 56 35.6875 56 
Q 41.65625 56 45.828125 52.96875 
Q 50 49.953125 52 44.1875 
z
" id="DejaVuSans-109"/>
      <path d="M 9.421875 75.984375 
L 18.40625 75.984375 
L 18.40625 0 
L 9.421875 0 
z
" id="DejaVuSans-108"/>
      <path d="M 30.609375 48.390625 
Q 23.390625 48.390625 19.1875 42.75 
Q 14.984375 37.109375 14.984375 27.296875 
Q 14.984375 17.484375 19.15625 11.84375 
Q 23.34375 6.203125 30.609375 6.203125 
Q 37.796875 6.203125 41.984375 11.859375 
Q 46.1875 17.53125 46.1875 27.296875 
Q 46.1875 37.015625 41.984375 42.703125 
Q 37.796875 48.390625 30.609375 48.390625 
z
M 30.609375 56 
Q 42.328125 56 49.015625 48.375 
Q 55.71875 40.765625 55.71875 27.296875 
Q 55.71875 13.875 49.015625 6.21875 
Q 42.328125 -1.421875 30.609375 -1.421875 
Q 18.84375 -1.421875 12.171875 6.21875 
Q 5.515625 13.875 5.515625 27.296875 
Q 5.515625 40.765625 12.171875 48.375 
Q 18.84375 56 30.609375 56 
z
" id="DejaVuSans-111"/>
     </defs>
     <g transform="translate(18.620313 212.112656)rotate(-90)scale(0.1 -0.1)">
      <use xlink:href="#DejaVuSans-68"/>
      <use x="77.001953" xlink:href="#DejaVuSans-101"/>
      <use x="138.525391" xlink:href="#DejaVuSans-97"/>
      <use x="199.804688" xlink:href="#DejaVuSans-116"/>
      <use x="239.013672" xlink:href="#DejaVuSans-104"/>
      <use x="302.392578" xlink:href="#DejaVuSans-115"/>
      <use x="354.492188" xlink:href="#DejaVuSans-32"/>
      <use x="386.279297" xlink:href="#DejaVuSans-112"/>
      <use x="449.755859" xlink:href="#DejaVuSans-101"/>
      <use x="511.279297" xlink:href="#DejaVuSans-114"/>
      <use x="552.392578" xlink:href="#DejaVuSans-32"/>
      <use x="584.179688" xlink:href="#DejaVuSans-49"/>
      <use x="647.802734" xlink:href="#DejaVuSans-32"/>
      <use x="679.589844" xlink:href="#DejaVuSans-109"/>
      <use x="777.001953" xlink:href="#DejaVuSans-105"/>
      <use x="804.785156" xlink:href="#DejaVuSans-108"/>
      <use x="832.568359" xlink:href="#DejaVuSans-108"/>
      <use x="860.351562" xlink:href="#DejaVuSans-105"/>
      <use x="888.134766" xlink:href="#DejaVuSans-111"/>
      <use x="949.316406" xlink:href="#DejaVuSans-110"/>
      <use x="1012.695312" xlink:href="#DejaVuSans-32"/>
      <use x="1044.482422" xlink:href="#DejaVuSans-112"/>
      <use x="1107.958984" xlink:href="#DejaVuSans-101"/>
      <use x="1169.482422" xlink:href="#DejaVuSans-111"/>
      <use x="1230.664062" xlink:href="#DejaVuSans-112"/>
      <use x="1294.140625" xlink:href="#DejaVuSans-108"/>
      <use x="1321.923828" xlink:href="#DejaVuSans-101"/>
     </g>
    </g>
   </g>
   <g id="line2d_27">
    <path clip-path="url(#p795d252d37)" d="M 44.425 166.19256 
L 48.098375 161.810002 
L 51.77175 163.193968 
L 55.445125 159.042072 
L 59.1185 159.734054 
L 62.791875 160.541367 
L 66.46525 156.504802 
L 70.138625 160.887359 
L 73.812 158.119428 
L 77.485375 156.15881 
L 81.15875 164.347273 
L 84.832125 159.503393 
L 88.5055 165.846568 
L 92.178875 163.078638 
L 95.85225 161.579342 
L 99.525625 167.461195 
L 103.199 154.428853 
L 106.872375 165.039255 
L 110.54575 162.847977 
L 114.219125 161.694672 
L 117.8925 159.964715 
L 121.565875 165.385247 
L 125.23925 164.462603 
L 128.912625 166.19256 
L 132.586 163.77062 
L 136.259375 161.579342 
L 139.93275 162.847977 
L 143.606125 157.773437 
L 147.2795 162.271324 
L 150.952875 159.618724 
L 154.62625 162.271324 
L 158.299625 164.001281 
L 161.973 156.620132 
L 165.646375 158.004097 
L 169.31975 163.539959 
L 172.993125 158.69608 
L 176.6665 153.62154 
L 180.339875 161.23335 
L 184.01325 162.732646 
L 187.686625 162.040663 
L 191.36 156.274141 
L 195.033375 157.081454 
L 198.70675 156.620132 
L 202.380125 159.042072 
L 206.0535 164.347273 
L 209.726875 164.693264 
L 213.40025 160.426037 
L 217.073625 163.309298 
L 220.747 165.269916 
L 224.420375 164.001281 
L 228.09375 165.500577 
L 231.767125 165.961899 
L 235.4405 168.383838 
L 239.113875 165.731238 
L 242.78725 162.963307 
L 246.460625 167.230534 
L 250.134 167.576525 
L 253.807375 165.154586 
L 257.48075 172.305074 
L 261.154125 168.960491 
L 264.8275 170.229126 
L 268.500875 167.115203 
L 272.17425 163.885951 
L 275.847625 167.807186 
L 279.521 174.265692 
L 283.194375 173.80437 
L 286.86775 177.725605 
L 290.541125 168.960491 
L 294.2145 171.036439 
L 297.887875 173.343048 
L 301.56125 168.960491 
L 305.234625 172.420404 
L 308.908 171.151769 
L 312.581375 174.727014 
L 316.25475 175.188335 
L 319.928125 170.459787 
L 323.6015 175.303666 
L 327.274875 177.033623 
L 330.94825 174.611683 
L 334.621625 172.535735 
L 338.295 180.493536 
L 341.968375 169.306482 
L 345.64175 172.420404 
L 349.315125 172.420404 
L 352.9885 179.455562 
L 356.661875 174.611683 
L 360.33525 170.459787 
L 364.008625 184.068781 
L 367.682 173.227718 
L 371.355375 174.842344 
L 375.02875 174.957674 
L 378.702125 177.494945 
L 382.3755 173.227718 
L 386.048875 173.80437 
" style="fill:none;stroke:#1f77b4;stroke-linecap:square;"/>
   </g>
   <g id="line2d_28">
    <path clip-path="url(#p795d252d37)" d="M 44.425 175.226988 
L 48.098375 172.91773 
L 51.77175 172.455879 
L 55.445125 169.684769 
L 59.1185 173.956896 
L 62.791875 168.761066 
L 66.46525 173.841433 
L 70.138625 173.264119 
L 73.812 170.954861 
L 77.485375 174.765136 
L 81.15875 168.068289 
L 84.832125 170.954861 
L 88.5055 176.381617 
L 92.178875 176.381617 
L 95.85225 172.686804 
L 99.525625 172.455879 
L 103.199 178.9218 
L 106.872375 174.534211 
L 110.54575 171.416713 
L 114.219125 168.761066 
L 117.8925 173.148656 
L 121.565875 173.264119 
L 125.23925 168.761066 
L 128.912625 173.956896 
L 132.586 171.30125 
L 136.259375 170.377547 
L 139.93275 169.569306 
L 143.606125 172.91773 
L 147.2795 172.340416 
L 150.952875 170.146621 
L 154.62625 174.996062 
L 158.299625 166.451808 
L 161.973 176.035228 
L 165.646375 178.575412 
L 169.31975 173.495045 
L 172.993125 174.418748 
L 176.6665 175.573376 
L 180.339875 176.266154 
L 184.01325 177.882634 
L 187.686625 171.30125 
L 191.36 172.10949 
L 195.033375 177.651708 
L 198.70675 171.763101 
L 202.380125 174.880599 
L 206.0535 176.612542 
L 209.726875 171.185787 
L 213.40025 179.499115 
L 217.073625 175.688839 
L 220.747 172.224953 
L 224.420375 175.342451 
L 228.09375 175.342451 
L 231.767125 176.266154 
L 235.4405 177.074394 
L 239.113875 172.91773 
L 242.78725 175.111525 
L 246.460625 173.841433 
L 250.134 175.573376 
L 253.807375 179.845503 
L 257.48075 175.804302 
L 261.154125 177.998097 
L 264.8275 179.845503 
L 268.500875 171.532175 
L 272.17425 175.919765 
L 275.847625 177.074394 
L 279.521 178.11356 
L 283.194375 176.728005 
L 286.86775 174.187822 
L 290.541125 181.461984 
L 294.2145 176.150691 
L 297.887875 172.91773 
L 301.56125 178.806337 
L 305.234625 178.344486 
L 308.908 174.996062 
L 312.581375 177.998097 
L 316.25475 172.455879 
L 319.928125 180.307355 
L 323.6015 174.649673 
L 327.274875 184.810408 
L 330.94825 176.381617 
L 334.621625 177.420783 
L 338.295 175.919765 
L 341.968375 177.30532 
L 345.64175 176.49708 
L 349.315125 180.422818 
L 352.9885 176.150691 
L 356.661875 178.459949 
L 360.33525 182.732076 
L 364.008625 180.191892 
L 367.682 174.649673 
L 371.355375 173.841433 
L 375.02875 173.495045 
L 378.702125 174.072359 
L 382.3755 181.923835 
L 386.048875 182.963001 
L 389.72225 180.307355 
" style="fill:none;stroke:#ff7f0e;stroke-linecap:square;"/>
   </g>
   <g id="line2d_29">
    <path clip-path="url(#p795d252d37)" d="M 44.425 155.727721 
L 48.098375 141.54704 
L 51.77175 145.582193 
L 55.445125 145.466903 
L 59.1185 141.66233 
L 62.791875 151.577278 
L 66.46525 152.845469 
L 70.138625 143.391681 
L 73.812 153.537209 
L 77.485375 141.89291 
L 81.15875 142.699941 
L 84.832125 139.932978 
L 88.5055 137.857757 
L 92.178875 144.083422 
L 95.85225 147.311544 
L 99.525625 149.617346 
L 103.199 145.812773 
L 106.872375 152.153728 
L 110.54575 144.314002 
L 114.219125 158.033523 
L 117.8925 151.116117 
L 121.565875 149.386766 
L 125.23925 152.384308 
L 128.912625 152.038438 
L 132.586 153.306629 
L 136.259375 160.224035 
L 139.93275 160.454615 
L 143.606125 157.572363 
L 147.2795 160.108745 
L 150.952875 152.614889 
L 154.62625 165.181509 
L 158.299625 161.031065 
L 161.973 162.183966 
L 165.646375 158.955844 
L 169.31975 161.492226 
L 172.993125 168.063761 
L 176.6665 164.605058 
L 180.339875 163.452157 
L 184.01325 168.524921 
L 187.686625 165.757959 
L 191.36 168.524921 
L 195.033375 168.179051 
L 198.70675 170.946013 
L 202.380125 169.101372 
L 206.0535 171.637754 
L 209.726875 171.291883 
L 213.40025 173.367105 
L 217.073625 167.602601 
L 220.747 172.560075 
L 224.420375 171.637754 
L 228.09375 173.482395 
L 231.767125 174.404716 
L 235.4405 171.753044 
L 239.113875 172.790655 
L 242.78725 174.635296 
L 246.460625 169.677822 
L 250.134 174.404716 
L 253.807375 170.023692 
L 257.48075 168.179051 
L 261.154125 173.136525 
L 264.8275 175.327037 
L 268.500875 174.058846 
L 272.17425 174.750586 
L 275.847625 177.517548 
L 279.521 175.672907 
L 283.194375 176.710518 
L 286.86775 176.134067 
L 290.541125 177.171678 
L 294.2145 171.291883 
L 297.887875 182.475022 
L 301.56125 179.47748 
L 305.234625 173.482395 
L 308.908 179.13161 
L 312.581375 180.976251 
L 316.25475 176.941098 
L 319.928125 174.635296 
L 323.6015 177.056388 
L 327.274875 176.249357 
L 330.94825 176.479938 
L 334.621625 173.136525 
L 338.295 178.670449 
L 341.968375 177.402258 
L 345.64175 182.013862 
L 349.315125 181.091541 
L 352.9885 178.785739 
L 356.661875 179.01632 
L 360.33525 177.402258 
L 364.008625 184.434954 
L 367.682 178.785739 
L 371.355375 175.672907 
L 375.02875 178.093999 
L 378.702125 183.397343 
L 382.3755 176.134067 
L 386.048875 181.206831 
" style="fill:none;stroke:#2ca02c;stroke-linecap:square;"/>
   </g>
   <g id="line2d_30">
    <path clip-path="url(#p795d252d37)" d="M 44.425 155.938434 
L 48.098375 156.740283 
L 51.77175 162.582331 
L 55.445125 160.864082 
L 59.1185 156.282083 
L 62.791875 155.251134 
L 66.46525 157.885783 
L 70.138625 153.303785 
L 73.812 154.563834 
L 77.485375 155.938434 
L 81.15875 151.470985 
L 84.832125 157.083933 
L 88.5055 167.049779 
L 92.178875 162.925981 
L 95.85225 156.396633 
L 99.525625 158.573083 
L 103.199 154.792934 
L 106.872375 160.062232 
L 110.54575 162.353231 
L 114.219125 168.653479 
L 117.8925 167.049779 
L 121.565875 162.467781 
L 125.23925 159.145832 
L 128.912625 163.269631 
L 132.586 168.653479 
L 136.259375 164.87333 
L 139.93275 160.978632 
L 143.606125 171.288128 
L 147.2795 165.10243 
L 150.952875 163.269631 
L 154.62625 165.21698 
L 158.299625 161.551381 
L 161.973 160.291332 
L 165.646375 167.737079 
L 169.31975 175.526476 
L 172.993125 170.600828 
L 176.6665 169.798978 
L 180.339875 166.820679 
L 184.01325 171.517228 
L 187.686625 170.600828 
L 191.36 171.288128 
L 195.033375 173.350027 
L 198.70675 171.631777 
L 202.380125 170.371728 
L 206.0535 175.068276 
L 209.726875 168.538929 
L 213.40025 166.706129 
L 217.073625 166.13338 
L 220.747 171.631777 
L 224.420375 166.820679 
L 228.09375 169.111678 
L 231.767125 167.049779 
L 235.4405 167.393429 
L 239.113875 171.517228 
L 242.78725 171.173578 
L 246.460625 175.297376 
L 250.134 170.142628 
L 253.807375 168.080729 
L 257.48075 167.966179 
L 261.154125 167.851629 
L 264.8275 172.433627 
L 268.500875 169.455328 
L 272.17425 175.641026 
L 275.847625 167.622529 
L 279.521 167.622529 
L 283.194375 168.080729 
L 286.86775 172.433627 
L 290.541125 170.600828 
L 294.2145 168.309829 
L 297.887875 171.173578 
L 301.56125 167.737079 
L 305.234625 171.517228 
L 308.908 175.755576 
L 312.581375 176.557426 
L 316.25475 170.600828 
L 319.928125 182.055823 
L 323.6015 174.380976 
L 327.274875 181.712174 
L 330.94825 178.504775 
L 334.621625 179.306624 
L 338.295 178.390225 
L 341.968375 175.297376 
L 345.64175 178.390225 
L 349.315125 185.034122 
L 352.9885 176.099226 
L 356.661875 180.223024 
L 360.33525 174.839176 
L 364.008625 175.641026 
L 367.682 175.526476 
L 371.355375 177.244725 
L 375.02875 179.764824 
L 378.702125 181.597624 
L 382.3755 178.962975 
L 386.048875 178.504775 
" style="fill:none;stroke:#d62728;stroke-linecap:square;"/>
   </g>
   <g id="line2d_31">
    <path clip-path="url(#p795d252d37)" d="M 44.425 173.719373 
L 48.098375 166.986022 
L 51.77175 168.697891 
L 55.445125 174.061747 
L 59.1185 172.235753 
L 62.791875 172.235753 
L 66.46525 168.013144 
L 70.138625 164.132908 
L 73.812 165.958901 
L 77.485375 162.991662 
L 81.15875 165.844776 
L 84.832125 169.268514 
L 88.5055 163.562285 
L 92.178875 158.997301 
L 95.85225 167.100147 
L 99.525625 164.247032 
L 103.199 165.274154 
L 106.872375 165.844776 
L 110.54575 171.66513 
L 114.219125 168.697891 
L 117.8925 165.045904 
L 121.565875 166.529524 
L 125.23925 164.361157 
L 128.912625 163.904659 
L 132.586 166.986022 
L 136.259375 168.241393 
L 139.93275 163.44816 
L 143.606125 160.024423 
L 147.2795 163.334036 
L 150.952875 166.301275 
L 154.62625 162.535163 
L 158.299625 159.111426 
L 161.973 158.426678 
L 165.646375 160.252672 
L 169.31975 158.769052 
L 172.993125 159.796173 
L 176.6665 167.328396 
L 180.339875 165.958901 
L 184.01325 160.252672 
L 187.686625 164.018783 
L 191.36 167.442521 
L 195.033375 156.943059 
L 198.70675 160.937419 
L 202.380125 158.084305 
L 206.0535 159.111426 
L 209.726875 166.301275 
L 213.40025 155.117065 
L 217.073625 166.301275 
L 220.747 164.132908 
L 224.420375 166.415399 
L 228.09375 165.045904 
L 231.767125 167.328396 
L 235.4405 169.725012 
L 239.113875 170.40976 
L 242.78725 175.773615 
L 246.460625 165.502403 
L 250.134 167.784894 
L 253.807375 163.105786 
L 257.48075 165.045904 
L 261.154125 164.93178 
L 264.8275 167.442521 
L 268.500875 170.752134 
L 272.17425 167.100147 
L 275.847625 173.833498 
L 279.521 176.572488 
L 283.194375 168.812016 
L 286.86775 172.464002 
L 290.541125 175.88774 
L 294.2145 175.659491 
L 297.887875 175.545366 
L 301.56125 174.518245 
L 305.234625 172.692252 
L 308.908 176.344238 
L 312.581375 170.980383 
L 316.25475 175.088868 
L 319.928125 177.713733 
L 323.6015 178.170232 
L 327.274875 174.860619 
L 330.94825 177.028986 
L 334.621625 179.425602 
L 338.295 179.311478 
L 341.968375 178.284356 
L 345.64175 178.512606 
L 349.315125 173.947622 
L 352.9885 178.854979 
L 356.661875 176.914861 
L 360.33525 178.62673 
L 364.008625 177.257235 
L 367.682 181.251596 
L 371.355375 183.077589 
L 375.02875 179.539727 
L 378.702125 177.713733 
L 382.3755 175.088868 
L 386.048875 174.289996 
" style="fill:none;stroke:#9467bd;stroke-linecap:square;"/>
   </g>
   <g id="line2d_32">
    <path clip-path="url(#p795d252d37)" d="M 44.425 176.686612 
L 48.098375 170.40976 
L 51.77175 166.986022 
L 55.445125 172.578127 
L 59.1185 172.578127 
L 62.791875 165.274154 
L 66.46525 171.779255 
L 70.138625 172.121629 
L 73.812 171.094507 
L 77.485375 169.953262 
L 81.15875 175.088868 
L 84.832125 173.14875 
L 88.5055 170.523885 
L 92.178875 168.92614 
L 95.85225 168.697891 
L 99.525625 165.958901 
L 103.199 168.469642 
L 106.872375 171.779255 
L 110.54575 174.860619 
L 114.219125 171.322757 
L 117.8925 174.175871 
L 121.565875 170.523885 
L 125.23925 170.638009 
L 128.912625 168.469642 
L 132.586 170.980383 
L 136.259375 175.88774 
L 139.93275 170.752134 
L 143.606125 169.268514 
L 147.2795 169.953262 
L 150.952875 173.491124 
L 154.62625 170.40976 
L 158.299625 168.92614 
L 161.973 175.317117 
L 165.646375 169.610888 
L 169.31975 171.436881 
L 172.993125 172.349878 
L 176.6665 168.241393 
L 180.339875 172.806376 
L 184.01325 169.268514 
L 187.686625 174.746494 
L 191.36 170.752134 
L 195.033375 173.376999 
L 198.70675 166.757773 
L 202.380125 172.920501 
L 206.0535 166.757773 
L 209.726875 178.284356 
L 213.40025 178.969104 
L 217.073625 170.638009 
L 220.747 172.692252 
L 224.420375 169.953262 
L 228.09375 176.572488 
L 231.767125 169.154389 
L 235.4405 172.578127 
L 239.113875 174.175871 
L 242.78725 165.958901 
L 246.460625 169.040265 
L 250.134 169.154389 
L 253.807375 172.235753 
L 257.48075 168.583767 
L 261.154125 172.349878 
L 264.8275 165.958901 
L 268.500875 161.736291 
L 272.17425 153.405197 
L 275.847625 160.024423 
L 279.521 154.660567 
L 283.194375 145.074102 
L 286.86775 143.019859 
L 290.541125 144.845853 
L 294.2145 129.324909 
L 297.887875 117.227703 
L 301.56125 120.765565 
L 305.234625 119.167821 
L 308.908 101.706759 
L 312.581375 99.081894 
L 316.25475 99.880766 
L 319.928125 97.370025 
L 323.6015 84.473947 
L 327.274875 75.914603 
L 330.94825 67.925882 
L 334.621625 65.301016 
L 338.295 57.997043 
L 341.968375 71.235495 
L 345.64175 61.42078 
L 349.315125 68.953003 
L 352.9885 68.838878 
L 356.661875 74.316858 
L 360.33525 72.37674 
L 364.008625 74.430983 
L 367.682 90.066051 
L 371.355375 96.228779 
L 375.02875 111.749723 
L 378.702125 117.91245 
L 382.3755 119.738444 
L 386.048875 129.667283 
L 389.72225 134.346391 
" style="fill:none;stroke:#8c564b;stroke-linecap:square;"/>
   </g>
   <g id="patch_3">
    <path d="M 44.425 242.08 
L 44.425 43.8 
" style="fill:none;stroke:#000000;stroke-linecap:square;stroke-linejoin:miter;stroke-width:0.8;"/>
   </g>
   <g id="patch_4">
    <path d="M 411.7625 242.08 
L 411.7625 43.8 
" style="fill:none;stroke:#000000;stroke-linecap:square;stroke-linejoin:miter;stroke-width:0.8;"/>
   </g>
   <g id="patch_5">
    <path d="M 44.425 242.08 
L 411.7625 242.08 
" style="fill:none;stroke:#000000;stroke-linecap:square;stroke-linejoin:miter;stroke-width:0.8;"/>
   </g>
   <g id="patch_6">
    <path d="M 44.425 43.8 
L 411.7625 43.8 
" style="fill:none;stroke:#000000;stroke-linecap:square;stroke-linejoin:miter;stroke-width:0.8;"/>
   </g>
   <g id="text_19">
    <!-- Deaths from all causes* -->
    <defs>
     <path d="M 37.109375 75.984375 
L 37.109375 68.5 
L 28.515625 68.5 
Q 23.6875 68.5 21.796875 66.546875 
Q 19.921875 64.59375 19.921875 59.515625 
L 19.921875 54.6875 
L 34.71875 54.6875 
L 34.71875 47.703125 
L 19.921875 47.703125 
L 19.921875 0 
L 10.890625 0 
L 10.890625 47.703125 
L 2.296875 47.703125 
L 2.296875 54.6875 
L 10.890625 54.6875 
L 10.890625 58.5 
Q 10.890625 67.625 15.140625 71.796875 
Q 19.390625 75.984375 28.609375 75.984375 
z
" id="DejaVuSans-102"/>
     <path d="M 8.5 21.578125 
L 8.5 54.6875 
L 17.484375 54.6875 
L 17.484375 21.921875 
Q 17.484375 14.15625 20.5 10.265625 
Q 23.53125 6.390625 29.59375 6.390625 
Q 36.859375 6.390625 41.078125 11.03125 
Q 45.3125 15.671875 45.3125 23.6875 
L 45.3125 54.6875 
L 54.296875 54.6875 
L 54.296875 0 
L 45.3125 0 
L 45.3125 8.40625 
Q 42.046875 3.421875 37.71875 1 
Q 33.40625 -1.421875 27.6875 -1.421875 
Q 18.265625 -1.421875 13.375 4.4375 
Q 8.5 10.296875 8.5 21.578125 
z
M 31.109375 56 
z
" id="DejaVuSans-117"/>
     <path d="M 47.015625 60.890625 
L 29.5 51.421875 
L 47.015625 41.890625 
L 44.1875 37.109375 
L 27.78125 47.015625 
L 27.78125 28.609375 
L 22.21875 28.609375 
L 22.21875 47.015625 
L 5.8125 37.109375 
L 2.984375 41.890625 
L 20.515625 51.421875 
L 2.984375 60.890625 
L 5.8125 65.71875 
L 22.21875 55.8125 
L 22.21875 74.21875 
L 27.78125 74.21875 
L 27.78125 55.8125 
L 44.1875 65.71875 
z
" id="DejaVuSans-42"/>
    </defs>
    <g transform="translate(156.279375 21.121875)scale(0.12 -0.12)">
     <use xlink:href="#DejaVuSans-68"/>
     <use x="77.001953" xlink:href="#DejaVuSans-101"/>
     <use x="138.525391" xlink:href="#DejaVuSans-97"/>
     <use x="199.804688" xlink:href="#DejaVuSans-116"/>
     <use x="239.013672" xlink:href="#DejaVuSans-104"/>
     <use x="302.392578" xlink:href="#DejaVuSans-115"/>
     <use x="354.492188" xlink:href="#DejaVuSans-32"/>
     <use x="386.279297" xlink:href="#DejaVuSans-102"/>
     <use x="421.484375" xlink:href="#DejaVuSans-114"/>
     <use x="462.566406" xlink:href="#DejaVuSans-111"/>
     <use x="523.748047" xlink:href="#DejaVuSans-109"/>
     <use x="621.160156" xlink:href="#DejaVuSans-32"/>
     <use x="652.947266" xlink:href="#DejaVuSans-97"/>
     <use x="714.226562" xlink:href="#DejaVuSans-108"/>
     <use x="742.009766" xlink:href="#DejaVuSans-108"/>
     <use x="769.792969" xlink:href="#DejaVuSans-32"/>
     <use x="801.580078" xlink:href="#DejaVuSans-99"/>
     <use x="856.560547" xlink:href="#DejaVuSans-97"/>
     <use x="917.839844" xlink:href="#DejaVuSans-117"/>
     <use x="981.21875" xlink:href="#DejaVuSans-115"/>
     <use x="1033.318359" xlink:href="#DejaVuSans-101"/>
     <use x="1094.841797" xlink:href="#DejaVuSans-115"/>
     <use x="1146.941406" xlink:href="#DejaVuSans-42"/>
    </g>
   </g>
   <g id="legend_1">
    <g id="patch_7">
     <path d="M 199.36875 139.86875 
L 256.81875 139.86875 
Q 258.81875 139.86875 258.81875 137.86875 
L 258.81875 50.8 
Q 258.81875 48.8 256.81875 48.8 
L 199.36875 48.8 
Q 197.36875 48.8 197.36875 50.8 
L 197.36875 137.86875 
Q 197.36875 139.86875 199.36875 139.86875 
z
" style="fill:#ffffff;opacity:0.8;stroke:#cccccc;stroke-linejoin:miter;"/>
    </g>
    <g id="line2d_33">
     <path d="M 201.36875 56.898438 
L 221.36875 56.898438 
" style="fill:none;stroke:#1f77b4;stroke-linecap:square;"/>
    </g>
    <g id="line2d_34"/>
    <g id="text_20">
     <!-- 2015 -->
     <g transform="translate(229.36875 60.398438)scale(0.1 -0.1)">
      <use xlink:href="#DejaVuSans-50"/>
      <use x="63.623047" xlink:href="#DejaVuSans-48"/>
      <use x="127.246094" xlink:href="#DejaVuSans-49"/>
      <use x="190.869141" xlink:href="#DejaVuSans-53"/>
     </g>
    </g>
    <g id="line2d_35">
     <path d="M 201.36875 71.576562 
L 221.36875 71.576562 
" style="fill:none;stroke:#ff7f0e;stroke-linecap:square;"/>
    </g>
    <g id="line2d_36"/>
    <g id="text_21">
     <!-- 2016 -->
     <g transform="translate(229.36875 75.076562)scale(0.1 -0.1)">
      <use xlink:href="#DejaVuSans-50"/>
      <use x="63.623047" xlink:href="#DejaVuSans-48"/>
      <use x="127.246094" xlink:href="#DejaVuSans-49"/>
      <use x="190.869141" xlink:href="#DejaVuSans-54"/>
     </g>
    </g>
    <g id="line2d_37">
     <path d="M 201.36875 86.254687 
L 221.36875 86.254687 
" style="fill:none;stroke:#2ca02c;stroke-linecap:square;"/>
    </g>
    <g id="line2d_38"/>
    <g id="text_22">
     <!-- 2017 -->
     <g transform="translate(229.36875 89.754687)scale(0.1 -0.1)">
      <use xlink:href="#DejaVuSans-50"/>
      <use x="63.623047" xlink:href="#DejaVuSans-48"/>
      <use x="127.246094" xlink:href="#DejaVuSans-49"/>
      <use x="190.869141" xlink:href="#DejaVuSans-55"/>
     </g>
    </g>
    <g id="line2d_39">
     <path d="M 201.36875 100.932813 
L 221.36875 100.932813 
" style="fill:none;stroke:#d62728;stroke-linecap:square;"/>
    </g>
    <g id="line2d_40"/>
    <g id="text_23">
     <!-- 2018 -->
     <g transform="translate(229.36875 104.432813)scale(0.1 -0.1)">
      <use xlink:href="#DejaVuSans-50"/>
      <use x="63.623047" xlink:href="#DejaVuSans-48"/>
      <use x="127.246094" xlink:href="#DejaVuSans-49"/>
      <use x="190.869141" xlink:href="#DejaVuSans-56"/>
     </g>
    </g>
    <g id="line2d_41">
     <path d="M 201.36875 115.610938 
L 221.36875 115.610938 
" style="fill:none;stroke:#9467bd;stroke-linecap:square;"/>
    </g>
    <g id="line2d_42"/>
    <g id="text_24">
     <!-- 2019 -->
     <g transform="translate(229.36875 119.110938)scale(0.1 -0.1)">
      <use xlink:href="#DejaVuSans-50"/>
      <use x="63.623047" xlink:href="#DejaVuSans-48"/>
      <use x="127.246094" xlink:href="#DejaVuSans-49"/>
      <use x="190.869141" xlink:href="#DejaVuSans-57"/>
     </g>
    </g>
    <g id="line2d_43">
     <path d="M 201.36875 130.289062 
L 221.36875 130.289062 
" style="fill:none;stroke:#8c564b;stroke-linecap:square;"/>
    </g>
    <g id="line2d_44"/>
    <g id="text_25">
     <!-- 2020 -->
     <g transform="translate(229.36875 133.789062)scale(0.1 -0.1)">
      <use xlink:href="#DejaVuSans-50"/>
      <use x="63.623047" xlink:href="#DejaVuSans-48"/>
      <use x="127.246094" xlink:href="#DejaVuSans-50"/>
      <use x="190.869141" xlink:href="#DejaVuSans-48"/>
     </g>
    </g>
   </g>
  </g>
  <g id="axes_2">
   <g id="matplotlib.axis_3">
    <g id="xtick_7">
     <g id="line2d_45">
      <path clip-path="url(#p795d252d37)" d="M 44.425 242.08 
L 44.425 43.8 
" style="fill:none;stroke:#b0b0b0;stroke-linecap:square;stroke-width:0.8;"/>
     </g>
     <g id="line2d_46">
      <defs>
       <path d="M 0 0 
L 0 -3.5 
" id="m7c2849b369" style="stroke:#000000;stroke-width:0.8;"/>
      </defs>
      <g>
       <use style="stroke:#000000;stroke-width:0.8;" x="44.425" xlink:href="#m7c2849b369" y="43.8"/>
      </g>
     </g>
     <g id="text_26">
      <!-- Jan 1st -->
      <g transform="translate(27.382031 34.720312)scale(0.1 -0.1)">
       <use xlink:href="#DejaVuSans-74"/>
       <use x="29.492188" xlink:href="#DejaVuSans-97"/>
       <use x="90.771484" xlink:href="#DejaVuSans-110"/>
       <use x="154.150391" xlink:href="#DejaVuSans-32"/>
       <use x="185.9375" xlink:href="#DejaVuSans-49"/>
       <use x="249.560547" xlink:href="#DejaVuSans-115"/>
       <use x="301.660156" xlink:href="#DejaVuSans-116"/>
      </g>
     </g>
    </g>
    <g id="xtick_8">
     <g id="line2d_47">
      <path clip-path="url(#p795d252d37)" d="M 158.299625 242.08 
L 158.299625 43.8 
" style="fill:none;stroke:#b0b0b0;stroke-linecap:square;stroke-width:0.8;"/>
     </g>
     <g id="line2d_48">
      <g>
       <use style="stroke:#000000;stroke-width:0.8;" x="158.299625" xlink:href="#m7c2849b369" y="43.8"/>
      </g>
     </g>
     <g id="text_27">
      <!-- Feb 1st -->
      <defs>
       <path d="M 9.8125 72.90625 
L 51.703125 72.90625 
L 51.703125 64.59375 
L 19.671875 64.59375 
L 19.671875 43.109375 
L 48.578125 43.109375 
L 48.578125 34.8125 
L 19.671875 34.8125 
L 19.671875 0 
L 9.8125 0 
z
" id="DejaVuSans-70"/>
       <path d="M 48.6875 27.296875 
Q 48.6875 37.203125 44.609375 42.84375 
Q 40.53125 48.484375 33.40625 48.484375 
Q 26.265625 48.484375 22.1875 42.84375 
Q 18.109375 37.203125 18.109375 27.296875 
Q 18.109375 17.390625 22.1875 11.75 
Q 26.265625 6.109375 33.40625 6.109375 
Q 40.53125 6.109375 44.609375 11.75 
Q 48.6875 17.390625 48.6875 27.296875 
z
M 18.109375 46.390625 
Q 20.953125 51.265625 25.265625 53.625 
Q 29.59375 56 35.59375 56 
Q 45.5625 56 51.78125 48.09375 
Q 58.015625 40.1875 58.015625 27.296875 
Q 58.015625 14.40625 51.78125 6.484375 
Q 45.5625 -1.421875 35.59375 -1.421875 
Q 29.59375 -1.421875 25.265625 0.953125 
Q 20.953125 3.328125 18.109375 8.203125 
L 18.109375 0 
L 9.078125 0 
L 9.078125 75.984375 
L 18.109375 75.984375 
z
" id="DejaVuSans-98"/>
      </defs>
      <g transform="translate(139.841813 34.720312)scale(0.1 -0.1)">
       <use xlink:href="#DejaVuSans-70"/>
       <use x="57.441406" xlink:href="#DejaVuSans-101"/>
       <use x="118.964844" xlink:href="#DejaVuSans-98"/>
       <use x="182.441406" xlink:href="#DejaVuSans-32"/>
       <use x="214.228516" xlink:href="#DejaVuSans-49"/>
       <use x="277.851562" xlink:href="#DejaVuSans-115"/>
       <use x="329.951172" xlink:href="#DejaVuSans-116"/>
      </g>
     </g>
    </g>
    <g id="xtick_9">
     <g id="line2d_49">
      <path clip-path="url(#p795d252d37)" d="M 261.154125 242.08 
L 261.154125 43.8 
" style="fill:none;stroke:#b0b0b0;stroke-linecap:square;stroke-width:0.8;"/>
     </g>
     <g id="line2d_50">
      <g>
       <use style="stroke:#000000;stroke-width:0.8;" x="261.154125" xlink:href="#m7c2849b369" y="43.8"/>
      </g>
     </g>
     <g id="text_28">
      <!-- Mar 1st -->
      <defs>
       <path d="M 9.8125 72.90625 
L 24.515625 72.90625 
L 43.109375 23.296875 
L 61.8125 72.90625 
L 76.515625 72.90625 
L 76.515625 0 
L 66.890625 0 
L 66.890625 64.015625 
L 48.09375 14.015625 
L 38.1875 14.015625 
L 19.390625 64.015625 
L 19.390625 0 
L 9.8125 0 
z
" id="DejaVuSans-77"/>
      </defs>
      <g transform="translate(242.385375 34.720312)scale(0.1 -0.1)">
       <use xlink:href="#DejaVuSans-77"/>
       <use x="86.279297" xlink:href="#DejaVuSans-97"/>
       <use x="147.558594" xlink:href="#DejaVuSans-114"/>
       <use x="188.671875" xlink:href="#DejaVuSans-32"/>
       <use x="220.458984" xlink:href="#DejaVuSans-49"/>
       <use x="284.082031" xlink:href="#DejaVuSans-115"/>
       <use x="336.181641" xlink:href="#DejaVuSans-116"/>
      </g>
     </g>
    </g>
    <g id="xtick_10">
     <g id="line2d_51">
      <path clip-path="url(#p795d252d37)" d="M 375.02875 242.08 
L 375.02875 43.8 
" style="fill:none;stroke:#b0b0b0;stroke-linecap:square;stroke-width:0.8;"/>
     </g>
     <g id="line2d_52">
      <g>
       <use style="stroke:#000000;stroke-width:0.8;" x="375.02875" xlink:href="#m7c2849b369" y="43.8"/>
      </g>
     </g>
     <g id="text_29">
      <!-- Apr 1st -->
      <defs>
       <path d="M 34.1875 63.1875 
L 20.796875 26.90625 
L 47.609375 26.90625 
z
M 28.609375 72.90625 
L 39.796875 72.90625 
L 67.578125 0 
L 57.328125 0 
L 50.6875 18.703125 
L 17.828125 18.703125 
L 11.1875 0 
L 0.78125 0 
z
" id="DejaVuSans-65"/>
      </defs>
      <g transform="translate(357.043594 34.720312)scale(0.1 -0.1)">
       <use xlink:href="#DejaVuSans-65"/>
       <use x="68.408203" xlink:href="#DejaVuSans-112"/>
       <use x="131.884766" xlink:href="#DejaVuSans-114"/>
       <use x="172.998047" xlink:href="#DejaVuSans-32"/>
       <use x="204.785156" xlink:href="#DejaVuSans-49"/>
       <use x="268.408203" xlink:href="#DejaVuSans-115"/>
       <use x="320.507812" xlink:href="#DejaVuSans-116"/>
      </g>
     </g>
    </g>
   </g>
   <g id="patch_8">
    <path d="M 44.425 242.08 
L 44.425 43.8 
" style="fill:none;stroke:#000000;stroke-linecap:square;stroke-linejoin:miter;stroke-width:0.8;"/>
   </g>
   <g id="patch_9">
    <path d="M 411.7625 242.08 
L 411.7625 43.8 
" style="fill:none;stroke:#000000;stroke-linecap:square;stroke-linejoin:miter;stroke-width:0.8;"/>
   </g>
   <g id="patch_10">
    <path d="M 44.425 242.08 
L 411.7625 242.08 
" style="fill:none;stroke:#000000;stroke-linecap:square;stroke-linejoin:miter;stroke-width:0.8;"/>
   </g>
   <g id="patch_11">
    <path d="M 44.425 43.8 
L 411.7625 43.8 
" style="fill:none;stroke:#000000;stroke-linecap:square;stroke-linejoin:miter;stroke-width:0.8;"/>
   </g>
   <g id="text_30">
    <!-- *based on a sample of 1689 cities covering 32% of the population. -->
    <defs>
     <path d="M 45.40625 46.390625 
L 45.40625 75.984375 
L 54.390625 75.984375 
L 54.390625 0 
L 45.40625 0 
L 45.40625 8.203125 
Q 42.578125 3.328125 38.25 0.953125 
Q 33.9375 -1.421875 27.875 -1.421875 
Q 17.96875 -1.421875 11.734375 6.484375 
Q 5.515625 14.40625 5.515625 27.296875 
Q 5.515625 40.1875 11.734375 48.09375 
Q 17.96875 56 27.875 56 
Q 33.9375 56 38.25 53.625 
Q 42.578125 51.265625 45.40625 46.390625 
z
M 14.796875 27.296875 
Q 14.796875 17.390625 18.875 11.75 
Q 22.953125 6.109375 30.078125 6.109375 
Q 37.203125 6.109375 41.296875 11.75 
Q 45.40625 17.390625 45.40625 27.296875 
Q 45.40625 37.203125 41.296875 42.84375 
Q 37.203125 48.484375 30.078125 48.484375 
Q 22.953125 48.484375 18.875 42.84375 
Q 14.796875 37.203125 14.796875 27.296875 
z
" id="DejaVuSans-100"/>
     <path d="M 2.984375 54.6875 
L 12.5 54.6875 
L 29.59375 8.796875 
L 46.6875 54.6875 
L 56.203125 54.6875 
L 35.6875 0 
L 23.484375 0 
z
" id="DejaVuSans-118"/>
     <path d="M 45.40625 27.984375 
Q 45.40625 37.75 41.375 43.109375 
Q 37.359375 48.484375 30.078125 48.484375 
Q 22.859375 48.484375 18.828125 43.109375 
Q 14.796875 37.75 14.796875 27.984375 
Q 14.796875 18.265625 18.828125 12.890625 
Q 22.859375 7.515625 30.078125 7.515625 
Q 37.359375 7.515625 41.375 12.890625 
Q 45.40625 18.265625 45.40625 27.984375 
z
M 54.390625 6.78125 
Q 54.390625 -7.171875 48.1875 -13.984375 
Q 42 -20.796875 29.203125 -20.796875 
Q 24.46875 -20.796875 20.265625 -20.09375 
Q 16.0625 -19.390625 12.109375 -17.921875 
L 12.109375 -9.1875 
Q 16.0625 -11.328125 19.921875 -12.34375 
Q 23.78125 -13.375 27.78125 -13.375 
Q 36.625 -13.375 41.015625 -8.765625 
Q 45.40625 -4.15625 45.40625 5.171875 
L 45.40625 9.625 
Q 42.625 4.78125 38.28125 2.390625 
Q 33.9375 0 27.875 0 
Q 17.828125 0 11.671875 7.65625 
Q 5.515625 15.328125 5.515625 27.984375 
Q 5.515625 40.671875 11.671875 48.328125 
Q 17.828125 56 27.875 56 
Q 33.9375 56 38.28125 53.609375 
Q 42.625 51.21875 45.40625 46.390625 
L 45.40625 54.6875 
L 54.390625 54.6875 
z
" id="DejaVuSans-103"/>
     <path d="M 72.703125 32.078125 
Q 68.453125 32.078125 66.03125 28.46875 
Q 63.625 24.859375 63.625 18.40625 
Q 63.625 12.0625 66.03125 8.421875 
Q 68.453125 4.78125 72.703125 4.78125 
Q 76.859375 4.78125 79.265625 8.421875 
Q 81.6875 12.0625 81.6875 18.40625 
Q 81.6875 24.8125 79.265625 28.4375 
Q 76.859375 32.078125 72.703125 32.078125 
z
M 72.703125 38.28125 
Q 80.421875 38.28125 84.953125 32.90625 
Q 89.5 27.546875 89.5 18.40625 
Q 89.5 9.28125 84.9375 3.921875 
Q 80.375 -1.421875 72.703125 -1.421875 
Q 64.890625 -1.421875 60.34375 3.921875 
Q 55.8125 9.28125 55.8125 18.40625 
Q 55.8125 27.59375 60.375 32.9375 
Q 64.9375 38.28125 72.703125 38.28125 
z
M 22.3125 68.015625 
Q 18.109375 68.015625 15.6875 64.375 
Q 13.28125 60.75 13.28125 54.390625 
Q 13.28125 47.953125 15.671875 44.328125 
Q 18.0625 40.71875 22.3125 40.71875 
Q 26.5625 40.71875 28.96875 44.328125 
Q 31.390625 47.953125 31.390625 54.390625 
Q 31.390625 60.6875 28.953125 64.34375 
Q 26.515625 68.015625 22.3125 68.015625 
z
M 66.40625 74.21875 
L 74.21875 74.21875 
L 28.609375 -1.421875 
L 20.796875 -1.421875 
z
M 22.3125 74.21875 
Q 30.03125 74.21875 34.609375 68.875 
Q 39.203125 63.53125 39.203125 54.390625 
Q 39.203125 45.171875 34.640625 39.84375 
Q 30.078125 34.515625 22.3125 34.515625 
Q 14.546875 34.515625 10.03125 39.859375 
Q 5.515625 45.21875 5.515625 54.390625 
Q 5.515625 63.484375 10.046875 68.84375 
Q 14.59375 74.21875 22.3125 74.21875 
z
" id="DejaVuSans-37"/>
     <path d="M 10.6875 12.40625 
L 21 12.40625 
L 21 0 
L 10.6875 0 
z
" id="DejaVuSans-46"/>
    </defs>
    <g transform="translate(43.2 285.12)scale(0.1 -0.1)">
     <use xlink:href="#DejaVuSans-42"/>
     <use x="50" xlink:href="#DejaVuSans-98"/>
     <use x="113.476562" xlink:href="#DejaVuSans-97"/>
     <use x="174.755859" xlink:href="#DejaVuSans-115"/>
     <use x="226.855469" xlink:href="#DejaVuSans-101"/>
     <use x="288.378906" xlink:href="#DejaVuSans-100"/>
     <use x="351.855469" xlink:href="#DejaVuSans-32"/>
     <use x="383.642578" xlink:href="#DejaVuSans-111"/>
     <use x="444.824219" xlink:href="#DejaVuSans-110"/>
     <use x="508.203125" xlink:href="#DejaVuSans-32"/>
     <use x="539.990234" xlink:href="#DejaVuSans-97"/>
     <use x="601.269531" xlink:href="#DejaVuSans-32"/>
     <use x="633.056641" xlink:href="#DejaVuSans-115"/>
     <use x="685.15625" xlink:href="#DejaVuSans-97"/>
     <use x="746.435547" xlink:href="#DejaVuSans-109"/>
     <use x="843.847656" xlink:href="#DejaVuSans-112"/>
     <use x="907.324219" xlink:href="#DejaVuSans-108"/>
     <use x="935.107422" xlink:href="#DejaVuSans-101"/>
     <use x="996.630859" xlink:href="#DejaVuSans-32"/>
     <use x="1028.417969" xlink:href="#DejaVuSans-111"/>
     <use x="1089.599609" xlink:href="#DejaVuSans-102"/>
     <use x="1124.804688" xlink:href="#DejaVuSans-32"/>
     <use x="1156.591797" xlink:href="#DejaVuSans-49"/>
     <use x="1220.214844" xlink:href="#DejaVuSans-54"/>
     <use x="1283.837891" xlink:href="#DejaVuSans-56"/>
     <use x="1347.460938" xlink:href="#DejaVuSans-57"/>
     <use x="1411.083984" xlink:href="#DejaVuSans-32"/>
     <use x="1442.871094" xlink:href="#DejaVuSans-99"/>
     <use x="1497.851562" xlink:href="#DejaVuSans-105"/>
     <use x="1525.634766" xlink:href="#DejaVuSans-116"/>
     <use x="1564.84375" xlink:href="#DejaVuSans-105"/>
     <use x="1592.626953" xlink:href="#DejaVuSans-101"/>
     <use x="1654.150391" xlink:href="#DejaVuSans-115"/>
     <use x="1706.25" xlink:href="#DejaVuSans-32"/>
     <use x="1738.037109" xlink:href="#DejaVuSans-99"/>
     <use x="1793.017578" xlink:href="#DejaVuSans-111"/>
     <use x="1854.199219" xlink:href="#DejaVuSans-118"/>
     <use x="1913.378906" xlink:href="#DejaVuSans-101"/>
     <use x="1974.902344" xlink:href="#DejaVuSans-114"/>
     <use x="2016.015625" xlink:href="#DejaVuSans-105"/>
     <use x="2043.798828" xlink:href="#DejaVuSans-110"/>
     <use x="2107.177734" xlink:href="#DejaVuSans-103"/>
     <use x="2170.654297" xlink:href="#DejaVuSans-32"/>
     <use x="2202.441406" xlink:href="#DejaVuSans-51"/>
     <use x="2266.064453" xlink:href="#DejaVuSans-50"/>
     <use x="2329.6875" xlink:href="#DejaVuSans-37"/>
     <use x="2424.707031" xlink:href="#DejaVuSans-32"/>
     <use x="2456.494141" xlink:href="#DejaVuSans-111"/>
     <use x="2517.675781" xlink:href="#DejaVuSans-102"/>
     <use x="2552.880859" xlink:href="#DejaVuSans-32"/>
     <use x="2584.667969" xlink:href="#DejaVuSans-116"/>
     <use x="2623.876953" xlink:href="#DejaVuSans-104"/>
     <use x="2687.255859" xlink:href="#DejaVuSans-101"/>
     <use x="2748.779297" xlink:href="#DejaVuSans-32"/>
     <use x="2780.566406" xlink:href="#DejaVuSans-112"/>
     <use x="2844.042969" xlink:href="#DejaVuSans-111"/>
     <use x="2905.224609" xlink:href="#DejaVuSans-112"/>
     <use x="2968.701172" xlink:href="#DejaVuSans-117"/>
     <use x="3032.080078" xlink:href="#DejaVuSans-108"/>
     <use x="3059.863281" xlink:href="#DejaVuSans-97"/>
     <use x="3121.142578" xlink:href="#DejaVuSans-116"/>
     <use x="3160.351562" xlink:href="#DejaVuSans-105"/>
     <use x="3188.134766" xlink:href="#DejaVuSans-111"/>
     <use x="3249.316406" xlink:href="#DejaVuSans-110"/>
     <use x="3312.695312" xlink:href="#DejaVuSans-46"/>
    </g>
   </g>
  </g>
 </g>
 <defs>
  <clipPath id="p795d252d37">
   <rect height="198.28" width="367.3375" x="44.425" y="43.8"/>
  </clipPath>
 </defs>
</svg>
